<mxfile host="Electron" agent="Mozilla/5.0 (X11; Linux x86_64) AppleWebKit/537.36 (KHTML, like Gecko) draw.io/25.0.2 Chrome/128.0.6613.186 Electron/32.2.5 Safari/537.36" version="25.0.2" pages="4">
  <diagram name="user_project_wrapper" id="xxfrP6UFguaHCLl8tLIp">
    <mxGraphModel dx="2416" dy="2529" grid="1" gridSize="10" guides="1" tooltips="1" connect="1" arrows="1" fold="1" page="1" pageScale="1" pageWidth="850" pageHeight="1100" math="0" shadow="0">
      <root>
        <mxCell id="0" />
        <mxCell id="1" parent="0" />
        <mxCell id="N9fQViY6vazVQ3Ll2CG7-3" value="" style="group" vertex="1" connectable="0" parent="1">
          <mxGeometry x="260" y="200" width="290" height="600" as="geometry" />
        </mxCell>
        <mxCell id="N9fQViY6vazVQ3Ll2CG7-5" value="" style="group" vertex="1" connectable="0" parent="N9fQViY6vazVQ3Ll2CG7-3">
          <mxGeometry width="290" height="600" as="geometry" />
        </mxCell>
        <mxCell id="N9fQViY6vazVQ3Ll2CG7-4" value="" style="rounded=0;whiteSpace=wrap;html=1;" vertex="1" parent="N9fQViY6vazVQ3Ll2CG7-5">
          <mxGeometry width="290" height="600" as="geometry" />
        </mxCell>
        <mxCell id="N9fQViY6vazVQ3Ll2CG7-2" value="&lt;pre id=&quot;codecell3&quot; style=&quot;font-family: var(--font-stack--monospace); margin: 0px; padding: 0.625rem 0.875rem; overflow: auto; box-sizing: border-box; line-height: 1.5; scrollbar-color: var(--color-foreground-border) transparent; scrollbar-width: thin; color: rgb(0, 0, 0); font-style: normal; font-variant-ligatures: normal; font-variant-caps: normal; letter-spacing: normal; orphans: 2; text-align: left; text-indent: 0px; text-transform: none; widows: 2; word-spacing: 0px; -webkit-text-stroke-width: 0px; text-decoration-thickness: initial; text-decoration-style: initial; text-decoration-color: initial;&quot;&gt;&lt;b style=&quot;&quot;&gt;&lt;font style=&quot;font-size: 16px;&quot;&gt;user_project_wrapper&lt;/font&gt;&lt;/b&gt;&lt;/pre&gt;" style="text;whiteSpace=wrap;html=1;" vertex="1" parent="N9fQViY6vazVQ3Ll2CG7-5">
          <mxGeometry x="40" y="540" width="190" height="60" as="geometry" />
        </mxCell>
        <mxCell id="N9fQViY6vazVQ3Ll2CG7-6" value="&lt;b&gt;&lt;font style=&quot;font-size: 14px;&quot;&gt;user_clock&lt;/font&gt;&lt;/b&gt;" style="text;html=1;align=left;verticalAlign=middle;whiteSpace=wrap;rounded=0;resizeWidth=1;resizeHeight=1;" vertex="1" parent="N9fQViY6vazVQ3Ll2CG7-5">
          <mxGeometry x="8.285714285714286" width="66.28571428571429" height="30" as="geometry" />
        </mxCell>
        <mxCell id="N9fQViY6vazVQ3Ll2CG7-7" value="&lt;b&gt;&lt;font style=&quot;font-size: 14px;&quot;&gt;wishbone&lt;/font&gt;&lt;/b&gt;" style="text;html=1;align=left;verticalAlign=middle;whiteSpace=wrap;rounded=0;resizeWidth=1;resizeHeight=1;" vertex="1" parent="N9fQViY6vazVQ3Ll2CG7-5">
          <mxGeometry x="8.285714285714286" y="40" width="66.28571428571429" height="30" as="geometry" />
        </mxCell>
        <mxCell id="N9fQViY6vazVQ3Ll2CG7-8" value="&lt;font style=&quot;font-size: 14px;&quot;&gt;&lt;b&gt;logic analyzer&lt;/b&gt;&lt;/font&gt;" style="text;html=1;align=left;verticalAlign=middle;whiteSpace=wrap;rounded=0;resizeWidth=1;resizeHeight=1;" vertex="1" parent="N9fQViY6vazVQ3Ll2CG7-5">
          <mxGeometry x="8.29" y="300" width="121.71" height="30" as="geometry" />
        </mxCell>
        <mxCell id="N9fQViY6vazVQ3Ll2CG7-9" value="IRQ" style="text;html=1;align=left;verticalAlign=middle;whiteSpace=wrap;rounded=0;resizeWidth=1;resizeHeight=1;fontSize=14;fontStyle=1" vertex="1" parent="N9fQViY6vazVQ3Ll2CG7-5">
          <mxGeometry x="8.285714285714286" y="390" width="66.28571428571429" height="30" as="geometry" />
        </mxCell>
        <mxCell id="N9fQViY6vazVQ3Ll2CG7-18" value="io" style="text;html=1;align=center;verticalAlign=middle;whiteSpace=wrap;rounded=0;resizeWidth=1;resizeHeight=1;fontSize=14;fontStyle=1" vertex="1" parent="N9fQViY6vazVQ3Ll2CG7-5">
          <mxGeometry x="111.85714285714286" width="66.28571428571429" height="30" as="geometry" />
        </mxCell>
        <mxCell id="N9fQViY6vazVQ3Ll2CG7-19" value="&lt;font style=&quot;font-size: 15px;&quot;&gt;Figure: User Project Wrapper Abstract View&lt;/font&gt;" style="text;html=1;align=center;verticalAlign=middle;whiteSpace=wrap;rounded=0;" vertex="1" parent="1">
          <mxGeometry x="230" y="810" width="350" height="30" as="geometry" />
        </mxCell>
        <mxCell id="N9fQViY6vazVQ3Ll2CG7-20" value="" style="endArrow=none;html=1;rounded=0;entryX=0.5;entryY=0;entryDx=0;entryDy=0;strokeWidth=5;" edge="1" parent="1" target="N9fQViY6vazVQ3Ll2CG7-18">
          <mxGeometry width="50" height="50" relative="1" as="geometry">
            <mxPoint x="405" y="120" as="sourcePoint" />
            <mxPoint x="570" y="470" as="targetPoint" />
          </mxGeometry>
        </mxCell>
        <mxCell id="N9fQViY6vazVQ3Ll2CG7-22" value="" style="endArrow=none;html=1;rounded=0;strokeWidth=5;entryX=0;entryY=0.033;entryDx=0;entryDy=0;entryPerimeter=0;" edge="1" parent="1" target="N9fQViY6vazVQ3Ll2CG7-4">
          <mxGeometry width="50" height="50" relative="1" as="geometry">
            <mxPoint x="180" y="220" as="sourcePoint" />
            <mxPoint x="250" y="230" as="targetPoint" />
          </mxGeometry>
        </mxCell>
        <mxCell id="N9fQViY6vazVQ3Ll2CG7-28" value="" style="endArrow=none;html=1;rounded=0;strokeWidth=5;entryX=0;entryY=0.083;entryDx=0;entryDy=0;entryPerimeter=0;" edge="1" parent="1" target="N9fQViY6vazVQ3Ll2CG7-4">
          <mxGeometry width="50" height="50" relative="1" as="geometry">
            <mxPoint x="180" y="250" as="sourcePoint" />
            <mxPoint x="250" y="250" as="targetPoint" />
          </mxGeometry>
        </mxCell>
        <mxCell id="N9fQViY6vazVQ3Ll2CG7-30" value="" style="endArrow=none;html=1;rounded=0;strokeWidth=5;entryX=0;entryY=0.517;entryDx=0;entryDy=0;entryPerimeter=0;" edge="1" parent="1" target="N9fQViY6vazVQ3Ll2CG7-4">
          <mxGeometry width="50" height="50" relative="1" as="geometry">
            <mxPoint x="180" y="510" as="sourcePoint" />
            <mxPoint x="240" y="510" as="targetPoint" />
          </mxGeometry>
        </mxCell>
        <mxCell id="N9fQViY6vazVQ3Ll2CG7-31" value="" style="endArrow=none;html=1;rounded=0;strokeWidth=5;entryX=-0.001;entryY=0.667;entryDx=0;entryDy=0;entryPerimeter=0;" edge="1" parent="1" target="N9fQViY6vazVQ3Ll2CG7-4">
          <mxGeometry width="50" height="50" relative="1" as="geometry">
            <mxPoint x="180" y="600" as="sourcePoint" />
            <mxPoint x="240" y="600" as="targetPoint" />
          </mxGeometry>
        </mxCell>
        <mxCell id="N9fQViY6vazVQ3Ll2CG7-32" value="" style="group" vertex="1" connectable="0" parent="1">
          <mxGeometry x="940" y="75" width="400" height="950" as="geometry" />
        </mxCell>
        <mxCell id="N9fQViY6vazVQ3Ll2CG7-33" value="" style="group" vertex="1" connectable="0" parent="N9fQViY6vazVQ3Ll2CG7-32">
          <mxGeometry width="399.9999999999999" height="950" as="geometry" />
        </mxCell>
        <mxCell id="N9fQViY6vazVQ3Ll2CG7-34" value="" style="rounded=0;whiteSpace=wrap;html=1;" vertex="1" parent="N9fQViY6vazVQ3Ll2CG7-33">
          <mxGeometry width="399.9999999999999" height="950" as="geometry" />
        </mxCell>
        <mxCell id="N9fQViY6vazVQ3Ll2CG7-35" value="&lt;pre style=&quot;font-family: var(--font-stack--monospace); margin: 0px; padding: 0.625rem 0.875rem; overflow: auto; box-sizing: border-box; line-height: 1.5; scrollbar-color: var(--color-foreground-border) transparent; scrollbar-width: thin; color: rgb(0, 0, 0); font-style: normal; font-variant-ligatures: normal; font-variant-caps: normal; letter-spacing: normal; orphans: 2; text-indent: 0px; text-transform: none; widows: 2; word-spacing: 0px; -webkit-text-stroke-width: 0px; text-decoration-thickness: initial; text-decoration-style: initial; text-decoration-color: initial;&quot; id=&quot;codecell3&quot;&gt;&lt;b style=&quot;&quot;&gt;&lt;font style=&quot;font-size: 16px;&quot;&gt;user_project_wrapper&lt;/font&gt;&lt;/b&gt;&lt;/pre&gt;" style="text;whiteSpace=wrap;html=1;align=center;" vertex="1" parent="N9fQViY6vazVQ3Ll2CG7-33">
          <mxGeometry x="88.57" y="900" width="222.86" height="50" as="geometry" />
        </mxCell>
        <mxCell id="N9fQViY6vazVQ3Ll2CG7-36" value="&lt;pre style=&quot;font-family: var(--font-stack--monospace); font-size: var(--code-font-size); margin-top: 0px; margin-bottom: 0px; padding: 0.625rem 0.875rem; overflow: auto; box-sizing: border-box; line-height: 1.5; scrollbar-color: var(--color-foreground-border) transparent; scrollbar-width: thin;&quot; id=&quot;codecell3&quot;&gt;user_clock2&lt;/pre&gt;" style="text;html=1;align=left;verticalAlign=middle;whiteSpace=wrap;rounded=0;resizeWidth=1;resizeHeight=1;" vertex="1" parent="N9fQViY6vazVQ3Ll2CG7-33">
          <mxGeometry x="11.428571428571425" width="91.4285714285714" height="47.5" as="geometry" />
        </mxCell>
        <mxCell id="N9fQViY6vazVQ3Ll2CG7-37" value="&lt;pre style=&quot;margin-top: 0px; margin-bottom: 0px; padding: 0.625rem 0.875rem; overflow: auto; box-sizing: border-box; line-height: 1.5; scrollbar-color: var(--color-foreground-border) transparent; scrollbar-width: thin;&quot; id=&quot;codecell3&quot;&gt;&lt;font face=&quot;Helvetica&quot;&gt;wb_clk_i&lt;br/&gt;&lt;br/&gt;wb_rst_i&lt;br/&gt;&lt;br/&gt;wbs_stb_i&lt;br/&gt;&lt;br/&gt;wbs_cyc_i&lt;br/&gt;&lt;br/&gt;wbs_we_i&lt;br/&gt;&lt;br/&gt;wbs_sel_i&lt;br/&gt;&lt;br/&gt;wbs_dat_i&lt;br/&gt;&lt;br/&gt;wbs_adr_i&lt;br/&gt;&lt;br/&gt;wbs_ack_o&lt;br/&gt;&lt;br/&gt;wbs_dat_o&lt;/font&gt;&lt;font face=&quot;var(--font-stack--monospace)&quot;&gt;&lt;br&gt;&lt;/font&gt;&lt;/pre&gt;" style="text;html=1;align=left;verticalAlign=middle;whiteSpace=wrap;rounded=0;resizeWidth=1;resizeHeight=1;" vertex="1" parent="N9fQViY6vazVQ3Ll2CG7-33">
          <mxGeometry x="11.43" y="70" width="168.57" height="380" as="geometry" />
        </mxCell>
        <mxCell id="N9fQViY6vazVQ3Ll2CG7-38" value="&lt;pre style=&quot;font-family: var(--font-stack--monospace); font-size: var(--code-font-size); margin-top: 0px; margin-bottom: 0px; padding: 0.625rem 0.875rem; overflow: auto; box-sizing: border-box; line-height: 1.5; scrollbar-color: var(--color-foreground-border) transparent; scrollbar-width: thin;&quot; id=&quot;codecell3&quot;&gt;la_data_in&lt;br&gt;&lt;br&gt;la_data_out&lt;br&gt;&lt;br&gt;la_oenb&lt;/pre&gt;" style="text;html=1;align=left;verticalAlign=middle;whiteSpace=wrap;rounded=0;resizeWidth=1;resizeHeight=1;" vertex="1" parent="N9fQViY6vazVQ3Ll2CG7-33">
          <mxGeometry x="11.43" y="500" width="128.57" height="130" as="geometry" />
        </mxCell>
        <mxCell id="N9fQViY6vazVQ3Ll2CG7-39" value="&lt;pre style=&quot;font-family: var(--font-stack--monospace); font-size: var(--code-font-size); margin-top: 0px; margin-bottom: 0px; padding: 0.625rem 0.875rem; overflow: auto; box-sizing: border-box; line-height: 1.5; scrollbar-color: var(--color-foreground-border) transparent; scrollbar-width: thin; font-weight: 400;&quot; id=&quot;codecell3&quot;&gt;user_irq&lt;/pre&gt;" style="text;html=1;align=left;verticalAlign=middle;whiteSpace=wrap;rounded=0;resizeWidth=1;resizeHeight=1;fontSize=14;fontStyle=1" vertex="1" parent="N9fQViY6vazVQ3Ll2CG7-33">
          <mxGeometry x="11.428571428571425" y="665" width="91.4285714285714" height="47.5" as="geometry" />
        </mxCell>
        <mxCell id="N9fQViY6vazVQ3Ll2CG7-40" value="&lt;pre style=&quot;font-family: var(--font-stack--monospace); font-size: var(--code-font-size); margin-top: 0px; margin-bottom: 0px; padding: 0.625rem 0.875rem; overflow: auto; box-sizing: border-box; line-height: 1.5; scrollbar-color: var(--color-foreground-border) transparent; scrollbar-width: thin; font-weight: 400;&quot; id=&quot;codecell3&quot;&gt;io_in&lt;br&gt;&lt;br&gt;io_out&lt;br&gt;&lt;br&gt;io_oeb&lt;/pre&gt;&lt;pre style=&quot;font-family: var(--font-stack--monospace); font-size: var(--code-font-size); margin-top: 0px; margin-bottom: 0px; padding: 0.625rem 0.875rem; overflow: auto; box-sizing: border-box; line-height: 1.5; scrollbar-color: var(--color-foreground-border) transparent; scrollbar-width: thin; font-weight: 400;&quot; id=&quot;codecell3&quot;&gt;analog_io&lt;/pre&gt;" style="text;html=1;align=right;verticalAlign=middle;whiteSpace=wrap;rounded=0;resizeWidth=1;resizeHeight=1;fontSize=14;fontStyle=1;rotation=-90;" vertex="1" parent="N9fQViY6vazVQ3Ll2CG7-33">
          <mxGeometry x="166" y="-57.62" width="81.42" height="198.75" as="geometry" />
        </mxCell>
        <mxCell id="N9fQViY6vazVQ3Ll2CG7-50" value="" style="endArrow=classic;html=1;rounded=0;" edge="1" parent="1">
          <mxGeometry width="50" height="50" relative="1" as="geometry">
            <mxPoint x="880" y="175" as="sourcePoint" />
            <mxPoint x="940" y="175" as="targetPoint" />
          </mxGeometry>
        </mxCell>
        <mxCell id="N9fQViY6vazVQ3Ll2CG7-51" value="" style="endArrow=classic;html=1;rounded=0;" edge="1" parent="1">
          <mxGeometry width="50" height="50" relative="1" as="geometry">
            <mxPoint x="880" y="210" as="sourcePoint" />
            <mxPoint x="940" y="210" as="targetPoint" />
          </mxGeometry>
        </mxCell>
        <mxCell id="N9fQViY6vazVQ3Ll2CG7-53" value="" style="endArrow=classic;html=1;rounded=0;" edge="1" parent="1">
          <mxGeometry width="50" height="50" relative="1" as="geometry">
            <mxPoint x="880" y="247" as="sourcePoint" />
            <mxPoint x="940" y="247" as="targetPoint" />
          </mxGeometry>
        </mxCell>
        <mxCell id="N9fQViY6vazVQ3Ll2CG7-54" value="" style="endArrow=classic;html=1;rounded=0;" edge="1" parent="1">
          <mxGeometry width="50" height="50" relative="1" as="geometry">
            <mxPoint x="880" y="280" as="sourcePoint" />
            <mxPoint x="940" y="280" as="targetPoint" />
          </mxGeometry>
        </mxCell>
        <mxCell id="N9fQViY6vazVQ3Ll2CG7-55" value="" style="endArrow=classic;html=1;rounded=0;" edge="1" parent="1">
          <mxGeometry width="50" height="50" relative="1" as="geometry">
            <mxPoint x="880" y="315" as="sourcePoint" />
            <mxPoint x="940" y="315" as="targetPoint" />
          </mxGeometry>
        </mxCell>
        <mxCell id="N9fQViY6vazVQ3Ll2CG7-56" value="" style="endArrow=classic;html=1;rounded=0;" edge="1" parent="1">
          <mxGeometry width="50" height="50" relative="1" as="geometry">
            <mxPoint x="880" y="352" as="sourcePoint" />
            <mxPoint x="940" y="352" as="targetPoint" />
          </mxGeometry>
        </mxCell>
        <mxCell id="N9fQViY6vazVQ3Ll2CG7-57" value="" style="endArrow=classic;html=1;rounded=0;" edge="1" parent="1">
          <mxGeometry width="50" height="50" relative="1" as="geometry">
            <mxPoint x="880" y="390" as="sourcePoint" />
            <mxPoint x="940" y="390" as="targetPoint" />
          </mxGeometry>
        </mxCell>
        <mxCell id="N9fQViY6vazVQ3Ll2CG7-58" value="" style="endArrow=classic;html=1;rounded=0;" edge="1" parent="1">
          <mxGeometry width="50" height="50" relative="1" as="geometry">
            <mxPoint x="880" y="425" as="sourcePoint" />
            <mxPoint x="940" y="425" as="targetPoint" />
          </mxGeometry>
        </mxCell>
        <mxCell id="N9fQViY6vazVQ3Ll2CG7-61" value="" style="endArrow=classic;html=1;rounded=0;" edge="1" parent="1">
          <mxGeometry width="50" height="50" relative="1" as="geometry">
            <mxPoint x="940" y="460" as="sourcePoint" />
            <mxPoint x="880" y="460" as="targetPoint" />
          </mxGeometry>
        </mxCell>
        <mxCell id="N9fQViY6vazVQ3Ll2CG7-62" value="" style="endArrow=classic;html=1;rounded=0;" edge="1" parent="1">
          <mxGeometry width="50" height="50" relative="1" as="geometry">
            <mxPoint x="940" y="499.76" as="sourcePoint" />
            <mxPoint x="880" y="499.76" as="targetPoint" />
          </mxGeometry>
        </mxCell>
        <mxCell id="N9fQViY6vazVQ3Ll2CG7-63" value="" style="endArrow=classic;html=1;rounded=0;" edge="1" parent="1">
          <mxGeometry width="50" height="50" relative="1" as="geometry">
            <mxPoint x="940" y="640" as="sourcePoint" />
            <mxPoint x="880" y="640" as="targetPoint" />
          </mxGeometry>
        </mxCell>
        <mxCell id="N9fQViY6vazVQ3Ll2CG7-66" value="" style="endArrow=classic;html=1;rounded=0;" edge="1" parent="1">
          <mxGeometry width="50" height="50" relative="1" as="geometry">
            <mxPoint x="880" y="606" as="sourcePoint" />
            <mxPoint x="940" y="606" as="targetPoint" />
          </mxGeometry>
        </mxCell>
        <mxCell id="N9fQViY6vazVQ3Ll2CG7-67" value="" style="endArrow=classic;html=1;rounded=0;" edge="1" parent="1">
          <mxGeometry width="50" height="50" relative="1" as="geometry">
            <mxPoint x="880" y="676" as="sourcePoint" />
            <mxPoint x="940" y="676" as="targetPoint" />
          </mxGeometry>
        </mxCell>
        <mxCell id="N9fQViY6vazVQ3Ll2CG7-69" value="" style="endArrow=classic;html=1;rounded=0;" edge="1" parent="1">
          <mxGeometry width="50" height="50" relative="1" as="geometry">
            <mxPoint x="940" y="764" as="sourcePoint" />
            <mxPoint x="880" y="764" as="targetPoint" />
          </mxGeometry>
        </mxCell>
        <mxCell id="N9fQViY6vazVQ3Ll2CG7-71" value="" style="endArrow=classic;html=1;rounded=0;exitX=1.015;exitY=0.428;exitDx=0;exitDy=0;exitPerimeter=0;" edge="1" parent="1" source="N9fQViY6vazVQ3Ll2CG7-40">
          <mxGeometry width="50" height="50" relative="1" as="geometry">
            <mxPoint x="1132" y="70" as="sourcePoint" />
            <mxPoint x="1132" y="5" as="targetPoint" />
          </mxGeometry>
        </mxCell>
        <mxCell id="N9fQViY6vazVQ3Ll2CG7-72" value="" style="endArrow=classic;html=1;rounded=0;exitX=1.006;exitY=0.635;exitDx=0;exitDy=0;exitPerimeter=0;" edge="1" parent="1" source="N9fQViY6vazVQ3Ll2CG7-40">
          <mxGeometry width="50" height="50" relative="1" as="geometry">
            <mxPoint x="1172" y="70" as="sourcePoint" />
            <mxPoint x="1173" y="5" as="targetPoint" />
          </mxGeometry>
        </mxCell>
        <mxCell id="N9fQViY6vazVQ3Ll2CG7-73" value="" style="endArrow=classic;html=1;rounded=0;" edge="1" parent="1">
          <mxGeometry width="50" height="50" relative="1" as="geometry">
            <mxPoint x="1086" y="5" as="sourcePoint" />
            <mxPoint x="1086" y="75" as="targetPoint" />
          </mxGeometry>
        </mxCell>
        <mxCell id="N9fQViY6vazVQ3Ll2CG7-75" value="" style="endArrow=none;html=1;rounded=0;" edge="1" parent="1">
          <mxGeometry width="50" height="50" relative="1" as="geometry">
            <mxPoint x="890" y="358" as="sourcePoint" />
            <mxPoint x="900" y="346" as="targetPoint" />
          </mxGeometry>
        </mxCell>
        <mxCell id="N9fQViY6vazVQ3Ll2CG7-76" value="" style="endArrow=none;html=1;rounded=0;" edge="1" parent="1">
          <mxGeometry width="50" height="50" relative="1" as="geometry">
            <mxPoint x="890" y="397" as="sourcePoint" />
            <mxPoint x="900" y="385" as="targetPoint" />
          </mxGeometry>
        </mxCell>
        <mxCell id="N9fQViY6vazVQ3Ll2CG7-77" value="" style="endArrow=none;html=1;rounded=0;" edge="1" parent="1">
          <mxGeometry width="50" height="50" relative="1" as="geometry">
            <mxPoint x="890" y="431" as="sourcePoint" />
            <mxPoint x="900" y="419" as="targetPoint" />
          </mxGeometry>
        </mxCell>
        <mxCell id="N9fQViY6vazVQ3Ll2CG7-78" value="" style="endArrow=none;html=1;rounded=0;" edge="1" parent="1">
          <mxGeometry width="50" height="50" relative="1" as="geometry">
            <mxPoint x="892" y="507" as="sourcePoint" />
            <mxPoint x="902" y="495" as="targetPoint" />
          </mxGeometry>
        </mxCell>
        <mxCell id="N9fQViY6vazVQ3Ll2CG7-79" value="" style="endArrow=none;html=1;rounded=0;" edge="1" parent="1">
          <mxGeometry width="50" height="50" relative="1" as="geometry">
            <mxPoint x="892" y="613" as="sourcePoint" />
            <mxPoint x="902" y="601" as="targetPoint" />
          </mxGeometry>
        </mxCell>
        <mxCell id="N9fQViY6vazVQ3Ll2CG7-80" value="" style="endArrow=none;html=1;rounded=0;" edge="1" parent="1">
          <mxGeometry width="50" height="50" relative="1" as="geometry">
            <mxPoint x="892" y="646" as="sourcePoint" />
            <mxPoint x="902" y="634" as="targetPoint" />
          </mxGeometry>
        </mxCell>
        <mxCell id="N9fQViY6vazVQ3Ll2CG7-81" value="" style="endArrow=none;html=1;rounded=0;" edge="1" parent="1">
          <mxGeometry width="50" height="50" relative="1" as="geometry">
            <mxPoint x="893" y="682" as="sourcePoint" />
            <mxPoint x="903" y="670" as="targetPoint" />
          </mxGeometry>
        </mxCell>
        <mxCell id="N9fQViY6vazVQ3Ll2CG7-83" value="" style="endArrow=none;html=1;rounded=0;exitX=1.033;exitY=0.821;exitDx=0;exitDy=0;exitPerimeter=0;" edge="1" parent="1" source="N9fQViY6vazVQ3Ll2CG7-40">
          <mxGeometry width="50" height="50" relative="1" as="geometry">
            <mxPoint x="1140" y="80" as="sourcePoint" />
            <mxPoint x="1210" y="10" as="targetPoint" />
          </mxGeometry>
        </mxCell>
        <mxCell id="N9fQViY6vazVQ3Ll2CG7-85" value="" style="endArrow=none;html=1;rounded=0;" edge="1" parent="1">
          <mxGeometry width="50" height="50" relative="1" as="geometry">
            <mxPoint x="1204" y="42" as="sourcePoint" />
            <mxPoint x="1214" y="30" as="targetPoint" />
          </mxGeometry>
        </mxCell>
        <mxCell id="N9fQViY6vazVQ3Ll2CG7-86" value="" style="endArrow=none;html=1;rounded=0;" edge="1" parent="1">
          <mxGeometry width="50" height="50" relative="1" as="geometry">
            <mxPoint x="1167" y="43" as="sourcePoint" />
            <mxPoint x="1177" y="31" as="targetPoint" />
          </mxGeometry>
        </mxCell>
        <mxCell id="N9fQViY6vazVQ3Ll2CG7-87" value="" style="endArrow=none;html=1;rounded=0;" edge="1" parent="1">
          <mxGeometry width="50" height="50" relative="1" as="geometry">
            <mxPoint x="1127" y="46" as="sourcePoint" />
            <mxPoint x="1137" y="34" as="targetPoint" />
          </mxGeometry>
        </mxCell>
        <mxCell id="N9fQViY6vazVQ3Ll2CG7-88" value="" style="endArrow=none;html=1;rounded=0;" edge="1" parent="1">
          <mxGeometry width="50" height="50" relative="1" as="geometry">
            <mxPoint x="1081" y="46" as="sourcePoint" />
            <mxPoint x="1091" y="34" as="targetPoint" />
          </mxGeometry>
        </mxCell>
        <mxCell id="N9fQViY6vazVQ3Ll2CG7-89" value="" style="endArrow=none;html=1;rounded=0;" edge="1" parent="1">
          <mxGeometry width="50" height="50" relative="1" as="geometry">
            <mxPoint x="892" y="770" as="sourcePoint" />
            <mxPoint x="902" y="758" as="targetPoint" />
          </mxGeometry>
        </mxCell>
        <mxCell id="N9fQViY6vazVQ3Ll2CG7-90" value="" style="endArrow=classic;html=1;rounded=0;" edge="1" parent="1">
          <mxGeometry width="50" height="50" relative="1" as="geometry">
            <mxPoint x="880" y="100" as="sourcePoint" />
            <mxPoint x="940" y="100" as="targetPoint" />
          </mxGeometry>
        </mxCell>
        <mxCell id="N9fQViY6vazVQ3Ll2CG7-91" value="4" style="text;html=1;align=center;verticalAlign=middle;whiteSpace=wrap;rounded=0;" vertex="1" parent="1">
          <mxGeometry x="885" y="338" width="10" height="10" as="geometry" />
        </mxCell>
        <mxCell id="N9fQViY6vazVQ3Ll2CG7-92" value="32" style="text;html=1;align=center;verticalAlign=middle;whiteSpace=wrap;rounded=0;" vertex="1" parent="1">
          <mxGeometry x="870" y="377" width="25" height="10" as="geometry" />
        </mxCell>
        <mxCell id="N9fQViY6vazVQ3Ll2CG7-93" value="32" style="text;html=1;align=center;verticalAlign=middle;whiteSpace=wrap;rounded=0;" vertex="1" parent="1">
          <mxGeometry x="870" y="413" width="25" height="10" as="geometry" />
        </mxCell>
        <mxCell id="N9fQViY6vazVQ3Ll2CG7-94" value="32" style="text;html=1;align=center;verticalAlign=middle;whiteSpace=wrap;rounded=0;" vertex="1" parent="1">
          <mxGeometry x="874" y="484" width="25" height="10" as="geometry" />
        </mxCell>
        <mxCell id="N9fQViY6vazVQ3Ll2CG7-95" value="128" style="text;html=1;align=center;verticalAlign=middle;whiteSpace=wrap;rounded=0;" vertex="1" parent="1">
          <mxGeometry x="873" y="594" width="25" height="10" as="geometry" />
        </mxCell>
        <mxCell id="N9fQViY6vazVQ3Ll2CG7-96" value="128" style="text;html=1;align=center;verticalAlign=middle;whiteSpace=wrap;rounded=0;" vertex="1" parent="1">
          <mxGeometry x="872" y="625" width="25" height="10" as="geometry" />
        </mxCell>
        <mxCell id="N9fQViY6vazVQ3Ll2CG7-97" value="128" style="text;html=1;align=center;verticalAlign=middle;whiteSpace=wrap;rounded=0;" vertex="1" parent="1">
          <mxGeometry x="872" y="664" width="25" height="10" as="geometry" />
        </mxCell>
        <mxCell id="N9fQViY6vazVQ3Ll2CG7-98" value="3" style="text;html=1;align=center;verticalAlign=middle;whiteSpace=wrap;rounded=0;" vertex="1" parent="1">
          <mxGeometry x="882" y="746" width="25" height="10" as="geometry" />
        </mxCell>
        <mxCell id="N9fQViY6vazVQ3Ll2CG7-99" value="38" style="text;html=1;align=center;verticalAlign=middle;whiteSpace=wrap;rounded=0;" vertex="1" parent="1">
          <mxGeometry x="1060" y="30" width="25" height="10" as="geometry" />
        </mxCell>
        <mxCell id="N9fQViY6vazVQ3Ll2CG7-100" value="38" style="text;html=1;align=center;verticalAlign=middle;whiteSpace=wrap;rounded=0;" vertex="1" parent="1">
          <mxGeometry x="1107" y="29" width="25" height="10" as="geometry" />
        </mxCell>
        <mxCell id="N9fQViY6vazVQ3Ll2CG7-101" value="38" style="text;html=1;align=center;verticalAlign=middle;whiteSpace=wrap;rounded=0;" vertex="1" parent="1">
          <mxGeometry x="1147" y="30" width="25" height="10" as="geometry" />
        </mxCell>
        <mxCell id="N9fQViY6vazVQ3Ll2CG7-102" value="29" style="text;html=1;align=center;verticalAlign=middle;whiteSpace=wrap;rounded=0;" vertex="1" parent="1">
          <mxGeometry x="1185" y="30" width="25" height="10" as="geometry" />
        </mxCell>
      </root>
    </mxGraphModel>
  </diagram>
  <diagram id="AfoWkcdYkI0e724PUBPd" name="user_proj_example">
    <mxGraphModel dx="1364" dy="843" grid="1" gridSize="10" guides="1" tooltips="1" connect="1" arrows="1" fold="1" page="1" pageScale="1" pageWidth="850" pageHeight="1100" math="0" shadow="0">
      <root>
        <mxCell id="0" />
        <mxCell id="1" parent="0" />
        <mxCell id="PppWaYoL0GaKZLXyUjvG-1" value="" style="group" parent="1" vertex="1" connectable="0">
          <mxGeometry x="140" y="186" width="840" height="1130" as="geometry" />
        </mxCell>
        <mxCell id="PppWaYoL0GaKZLXyUjvG-2" value="" style="group" parent="PppWaYoL0GaKZLXyUjvG-1" vertex="1" connectable="0">
          <mxGeometry width="839.9999999999998" height="1130" as="geometry" />
        </mxCell>
        <mxCell id="PppWaYoL0GaKZLXyUjvG-3" value="" style="rounded=0;whiteSpace=wrap;html=1;" parent="PppWaYoL0GaKZLXyUjvG-2" vertex="1">
          <mxGeometry width="839.9999999999998" height="1130" as="geometry" />
        </mxCell>
        <mxCell id="PppWaYoL0GaKZLXyUjvG-4" value="&lt;pre style=&quot;font-family: var(--font-stack--monospace); margin: 0px; padding: 0.625rem 0.875rem; overflow: auto; box-sizing: border-box; line-height: 1.5; scrollbar-color: var(--color-foreground-border) transparent; scrollbar-width: thin; color: rgb(0, 0, 0); font-style: normal; font-variant-ligatures: normal; font-variant-caps: normal; letter-spacing: normal; orphans: 2; text-indent: 0px; text-transform: none; widows: 2; word-spacing: 0px; -webkit-text-stroke-width: 0px; text-decoration-thickness: initial; text-decoration-style: initial; text-decoration-color: initial;&quot; id=&quot;codecell3&quot;&gt;&lt;b style=&quot;&quot;&gt;&lt;font style=&quot;font-size: 16px;&quot;&gt;user_project_wrapper&lt;/font&gt;&lt;/b&gt;&lt;/pre&gt;" style="text;whiteSpace=wrap;html=1;align=center;" parent="PppWaYoL0GaKZLXyUjvG-2" vertex="1">
          <mxGeometry x="186" y="1070" width="468" height="60" as="geometry" />
        </mxCell>
        <mxCell id="PppWaYoL0GaKZLXyUjvG-5" value="&lt;pre style=&quot;font-family: var(--font-stack--monospace); font-size: var(--code-font-size); margin-top: 0px; margin-bottom: 0px; padding: 0.625rem 0.875rem; overflow: auto; box-sizing: border-box; line-height: 1.5; scrollbar-color: var(--color-foreground-border) transparent; scrollbar-width: thin;&quot; id=&quot;codecell3&quot;&gt;user_clock2&lt;/pre&gt;" style="text;html=1;align=left;verticalAlign=middle;whiteSpace=wrap;rounded=0;resizeWidth=1;resizeHeight=1;" parent="PppWaYoL0GaKZLXyUjvG-2" vertex="1">
          <mxGeometry x="23.999999999999993" width="191.99999999999994" height="56.49999999999999" as="geometry" />
        </mxCell>
        <mxCell id="PppWaYoL0GaKZLXyUjvG-6" value="&lt;pre style=&quot;margin-top: 0px; margin-bottom: 0px; padding: 0.625rem 0.875rem; overflow: auto; box-sizing: border-box; line-height: 1.5; scrollbar-color: var(--color-foreground-border) transparent; scrollbar-width: thin;&quot; id=&quot;codecell3&quot;&gt;&lt;font face=&quot;Helvetica&quot;&gt;wb_clk_i&lt;br/&gt;&lt;br/&gt;wb_rst_i&lt;br/&gt;&lt;br/&gt;wbs_stb_i&lt;br/&gt;&lt;br/&gt;wbs_cyc_i&lt;br/&gt;&lt;br/&gt;wbs_we_i&lt;br/&gt;&lt;br/&gt;wbs_sel_i&lt;br/&gt;&lt;br/&gt;wbs_dat_i&lt;br/&gt;&lt;br/&gt;wbs_adr_i&lt;br/&gt;&lt;br/&gt;wbs_ack_o&lt;br/&gt;&lt;br/&gt;wbs_dat_o&lt;/font&gt;&lt;font face=&quot;var(--font-stack--monospace)&quot;&gt;&lt;br&gt;&lt;/font&gt;&lt;/pre&gt;" style="text;html=1;align=left;verticalAlign=middle;whiteSpace=wrap;rounded=0;resizeWidth=1;resizeHeight=1;" parent="PppWaYoL0GaKZLXyUjvG-2" vertex="1">
          <mxGeometry x="24" y="83.26" width="76" height="452" as="geometry" />
        </mxCell>
        <mxCell id="PppWaYoL0GaKZLXyUjvG-7" value="&lt;pre style=&quot;font-family: var(--font-stack--monospace); font-size: var(--code-font-size); margin-top: 0px; margin-bottom: 0px; padding: 0.625rem 0.875rem; overflow: auto; box-sizing: border-box; line-height: 1.5; scrollbar-color: var(--color-foreground-border) transparent; scrollbar-width: thin;&quot; id=&quot;codecell3&quot;&gt;la_data_in&lt;br&gt;&lt;br&gt;la_data_out&lt;br&gt;&lt;br&gt;la_oenb&lt;/pre&gt;" style="text;html=1;align=left;verticalAlign=middle;whiteSpace=wrap;rounded=0;resizeWidth=1;resizeHeight=1;" parent="PppWaYoL0GaKZLXyUjvG-2" vertex="1">
          <mxGeometry x="24.003" y="594.7368421052631" width="269.997" height="154.6315789473684" as="geometry" />
        </mxCell>
        <mxCell id="PppWaYoL0GaKZLXyUjvG-8" value="&lt;pre style=&quot;font-family: var(--font-stack--monospace); font-size: var(--code-font-size); margin-top: 0px; margin-bottom: 0px; padding: 0.625rem 0.875rem; overflow: auto; box-sizing: border-box; line-height: 1.5; scrollbar-color: var(--color-foreground-border) transparent; scrollbar-width: thin; font-weight: 400;&quot; id=&quot;codecell3&quot;&gt;user_irq&lt;/pre&gt;" style="text;html=1;align=left;verticalAlign=middle;whiteSpace=wrap;rounded=0;resizeWidth=1;resizeHeight=1;fontSize=14;fontStyle=1" parent="PppWaYoL0GaKZLXyUjvG-2" vertex="1">
          <mxGeometry x="19" y="770" width="86" height="56.5" as="geometry" />
        </mxCell>
        <mxCell id="PppWaYoL0GaKZLXyUjvG-9" value="&lt;pre style=&quot;font-family: var(--font-stack--monospace); font-size: var(--code-font-size); margin-top: 0px; margin-bottom: 0px; padding: 0.625rem 0.875rem; overflow: auto; box-sizing: border-box; line-height: 1.5; scrollbar-color: var(--color-foreground-border) transparent; scrollbar-width: thin; font-weight: 400;&quot; id=&quot;codecell3&quot;&gt;io_in&lt;br&gt;&lt;br&gt;io_out&lt;br&gt;&lt;br&gt;io_oeb&lt;/pre&gt;&lt;pre style=&quot;font-family: var(--font-stack--monospace); font-size: var(--code-font-size); margin-top: 0px; margin-bottom: 0px; padding: 0.625rem 0.875rem; overflow: auto; box-sizing: border-box; line-height: 1.5; scrollbar-color: var(--color-foreground-border) transparent; scrollbar-width: thin; font-weight: 400;&quot; id=&quot;codecell3&quot;&gt;analog_io&lt;/pre&gt;" style="text;html=1;align=right;verticalAlign=middle;whiteSpace=wrap;rounded=0;resizeWidth=1;resizeHeight=1;fontSize=14;fontStyle=1;rotation=-90;" parent="PppWaYoL0GaKZLXyUjvG-2" vertex="1">
          <mxGeometry x="154.49" y="-56.97" width="81.75" height="210.12" as="geometry" />
        </mxCell>
        <mxCell id="PppWaYoL0GaKZLXyUjvG-10" value="" style="rounded=0;whiteSpace=wrap;html=1;" parent="PppWaYoL0GaKZLXyUjvG-2" vertex="1">
          <mxGeometry x="122" y="90" width="688" height="770" as="geometry" />
        </mxCell>
        <mxCell id="PppWaYoL0GaKZLXyUjvG-11" value="&lt;pre id=&quot;codecell3&quot; style=&quot;forced-color-adjust: none; color: light-dark(rgb(0, 0, 0), rgb(237, 237, 237)); font-size: 12px; font-style: normal; font-variant-ligatures: normal; font-variant-caps: normal; font-weight: 400; letter-spacing: normal; orphans: 2; text-align: center; text-indent: 0px; text-transform: none; widows: 2; word-spacing: 0px; -webkit-text-stroke-width: 0px; text-decoration-thickness: initial; text-decoration-style: initial; text-decoration-color: initial; font-family: var(--font-stack--monospace); margin: 0px; padding: 0.625rem 0.875rem; overflow: auto; box-sizing: border-box; line-height: 1.5; scrollbar-color: var(--color-foreground-border) transparent; scrollbar-width: thin;&quot;&gt;&lt;b style=&quot;forced-color-adjust: none;&quot;&gt;&lt;font style=&quot;forced-color-adjust: none; font-size: 16px;&quot;&gt;user_proj_example&lt;/font&gt;&lt;/b&gt;&lt;/pre&gt;" style="text;whiteSpace=wrap;html=1;" parent="PppWaYoL0GaKZLXyUjvG-2" vertex="1">
          <mxGeometry x="351" y="791" width="179" height="70" as="geometry" />
        </mxCell>
        <mxCell id="PppWaYoL0GaKZLXyUjvG-12" value="" style="endArrow=classic;html=1;rounded=0;entryX=0;entryY=0.091;entryDx=0;entryDy=0;entryPerimeter=0;" parent="1" target="PppWaYoL0GaKZLXyUjvG-10" edge="1">
          <mxGeometry width="50" height="50" relative="1" as="geometry">
            <mxPoint x="81" y="345" as="sourcePoint" />
            <mxPoint x="141" y="345" as="targetPoint" />
          </mxGeometry>
        </mxCell>
        <mxCell id="PppWaYoL0GaKZLXyUjvG-13" value="" style="endArrow=classic;html=1;rounded=0;entryX=0.001;entryY=0.136;entryDx=0;entryDy=0;entryPerimeter=0;" parent="1" target="PppWaYoL0GaKZLXyUjvG-10" edge="1">
          <mxGeometry width="50" height="50" relative="1" as="geometry">
            <mxPoint x="81" y="380" as="sourcePoint" />
            <mxPoint x="141" y="380" as="targetPoint" />
          </mxGeometry>
        </mxCell>
        <mxCell id="PppWaYoL0GaKZLXyUjvG-14" value="" style="endArrow=classic;html=1;rounded=0;entryX=0;entryY=0.182;entryDx=0;entryDy=0;entryPerimeter=0;" parent="1" target="PppWaYoL0GaKZLXyUjvG-10" edge="1">
          <mxGeometry width="50" height="50" relative="1" as="geometry">
            <mxPoint x="81" y="417" as="sourcePoint" />
            <mxPoint x="141" y="417" as="targetPoint" />
          </mxGeometry>
        </mxCell>
        <mxCell id="PppWaYoL0GaKZLXyUjvG-15" value="" style="endArrow=classic;html=1;rounded=0;entryX=0;entryY=0.226;entryDx=0;entryDy=0;entryPerimeter=0;" parent="1" target="PppWaYoL0GaKZLXyUjvG-10" edge="1">
          <mxGeometry width="50" height="50" relative="1" as="geometry">
            <mxPoint x="81" y="450" as="sourcePoint" />
            <mxPoint x="141" y="450" as="targetPoint" />
          </mxGeometry>
        </mxCell>
        <mxCell id="PppWaYoL0GaKZLXyUjvG-16" value="" style="endArrow=classic;html=1;rounded=0;entryX=0;entryY=0.272;entryDx=0;entryDy=0;entryPerimeter=0;" parent="1" target="PppWaYoL0GaKZLXyUjvG-10" edge="1">
          <mxGeometry width="50" height="50" relative="1" as="geometry">
            <mxPoint x="81" y="485" as="sourcePoint" />
            <mxPoint x="141" y="485" as="targetPoint" />
          </mxGeometry>
        </mxCell>
        <mxCell id="PppWaYoL0GaKZLXyUjvG-17" value="" style="endArrow=classic;html=1;rounded=0;entryX=0;entryY=0.32;entryDx=0;entryDy=0;entryPerimeter=0;" parent="1" target="PppWaYoL0GaKZLXyUjvG-10" edge="1">
          <mxGeometry width="50" height="50" relative="1" as="geometry">
            <mxPoint x="81" y="522" as="sourcePoint" />
            <mxPoint x="141" y="522" as="targetPoint" />
          </mxGeometry>
        </mxCell>
        <mxCell id="PppWaYoL0GaKZLXyUjvG-18" value="" style="endArrow=classic;html=1;rounded=0;entryX=0;entryY=0.37;entryDx=0;entryDy=0;entryPerimeter=0;" parent="1" target="PppWaYoL0GaKZLXyUjvG-10" edge="1">
          <mxGeometry width="50" height="50" relative="1" as="geometry">
            <mxPoint x="81" y="560" as="sourcePoint" />
            <mxPoint x="141" y="560" as="targetPoint" />
          </mxGeometry>
        </mxCell>
        <mxCell id="PppWaYoL0GaKZLXyUjvG-19" value="" style="endArrow=classic;html=1;rounded=0;entryX=0.002;entryY=0.414;entryDx=0;entryDy=0;entryPerimeter=0;" parent="1" target="PppWaYoL0GaKZLXyUjvG-10" edge="1">
          <mxGeometry width="50" height="50" relative="1" as="geometry">
            <mxPoint x="81" y="595" as="sourcePoint" />
            <mxPoint x="141" y="595" as="targetPoint" />
          </mxGeometry>
        </mxCell>
        <mxCell id="PppWaYoL0GaKZLXyUjvG-20" value="" style="endArrow=classic;html=1;rounded=0;exitX=-0.001;exitY=0.461;exitDx=0;exitDy=0;exitPerimeter=0;" parent="1" source="PppWaYoL0GaKZLXyUjvG-10" edge="1">
          <mxGeometry width="50" height="50" relative="1" as="geometry">
            <mxPoint x="141" y="630" as="sourcePoint" />
            <mxPoint x="81" y="630" as="targetPoint" />
          </mxGeometry>
        </mxCell>
        <mxCell id="PppWaYoL0GaKZLXyUjvG-21" value="" style="endArrow=classic;html=1;rounded=0;exitX=-0.001;exitY=0.511;exitDx=0;exitDy=0;exitPerimeter=0;" parent="1" source="PppWaYoL0GaKZLXyUjvG-10" edge="1">
          <mxGeometry width="50" height="50" relative="1" as="geometry">
            <mxPoint x="141" y="669.76" as="sourcePoint" />
            <mxPoint x="81" y="669.76" as="targetPoint" />
          </mxGeometry>
        </mxCell>
        <mxCell id="PppWaYoL0GaKZLXyUjvG-22" value="" style="endArrow=classic;html=1;rounded=0;" parent="1" edge="1">
          <mxGeometry width="50" height="50" relative="1" as="geometry">
            <mxPoint x="138" y="859" as="sourcePoint" />
            <mxPoint x="78" y="859" as="targetPoint" />
          </mxGeometry>
        </mxCell>
        <mxCell id="PppWaYoL0GaKZLXyUjvG-23" value="" style="endArrow=classic;html=1;rounded=0;" parent="1" edge="1">
          <mxGeometry width="50" height="50" relative="1" as="geometry">
            <mxPoint x="78" y="825" as="sourcePoint" />
            <mxPoint x="138" y="825" as="targetPoint" />
          </mxGeometry>
        </mxCell>
        <mxCell id="PppWaYoL0GaKZLXyUjvG-24" value="" style="endArrow=classic;html=1;rounded=0;" parent="1" edge="1">
          <mxGeometry width="50" height="50" relative="1" as="geometry">
            <mxPoint x="78" y="895" as="sourcePoint" />
            <mxPoint x="138" y="895" as="targetPoint" />
          </mxGeometry>
        </mxCell>
        <mxCell id="PppWaYoL0GaKZLXyUjvG-25" value="" style="endArrow=classic;html=1;rounded=0;" parent="1" edge="1">
          <mxGeometry width="50" height="50" relative="1" as="geometry">
            <mxPoint x="138" y="983" as="sourcePoint" />
            <mxPoint x="78" y="983" as="targetPoint" />
          </mxGeometry>
        </mxCell>
        <mxCell id="PppWaYoL0GaKZLXyUjvG-26" value="" style="endArrow=classic;html=1;rounded=0;exitX=0.101;exitY=0;exitDx=0;exitDy=0;exitPerimeter=0;" parent="1" source="PppWaYoL0GaKZLXyUjvG-10" edge="1">
          <mxGeometry width="50" height="50" relative="1" as="geometry">
            <mxPoint x="332" y="186" as="sourcePoint" />
            <mxPoint x="332" y="116" as="targetPoint" />
          </mxGeometry>
        </mxCell>
        <mxCell id="PppWaYoL0GaKZLXyUjvG-27" value="" style="endArrow=classic;html=1;rounded=0;exitX=0.171;exitY=0.002;exitDx=0;exitDy=0;exitPerimeter=0;" parent="1" source="PppWaYoL0GaKZLXyUjvG-10" edge="1">
          <mxGeometry width="50" height="50" relative="1" as="geometry">
            <mxPoint x="380" y="186" as="sourcePoint" />
            <mxPoint x="380" y="116" as="targetPoint" />
          </mxGeometry>
        </mxCell>
        <mxCell id="PppWaYoL0GaKZLXyUjvG-28" value="" style="endArrow=classic;html=1;rounded=0;entryX=0.036;entryY=0;entryDx=0;entryDy=0;entryPerimeter=0;" parent="1" target="PppWaYoL0GaKZLXyUjvG-10" edge="1">
          <mxGeometry width="50" height="50" relative="1" as="geometry">
            <mxPoint x="286" y="116" as="sourcePoint" />
            <mxPoint x="286" y="186" as="targetPoint" />
          </mxGeometry>
        </mxCell>
        <mxCell id="PppWaYoL0GaKZLXyUjvG-29" value="" style="endArrow=none;html=1;rounded=0;" parent="1" edge="1">
          <mxGeometry width="50" height="50" relative="1" as="geometry">
            <mxPoint x="91" y="528" as="sourcePoint" />
            <mxPoint x="101" y="516" as="targetPoint" />
          </mxGeometry>
        </mxCell>
        <mxCell id="PppWaYoL0GaKZLXyUjvG-30" value="" style="endArrow=none;html=1;rounded=0;" parent="1" edge="1">
          <mxGeometry width="50" height="50" relative="1" as="geometry">
            <mxPoint x="91" y="567" as="sourcePoint" />
            <mxPoint x="101" y="555" as="targetPoint" />
          </mxGeometry>
        </mxCell>
        <mxCell id="PppWaYoL0GaKZLXyUjvG-31" value="" style="endArrow=none;html=1;rounded=0;" parent="1" edge="1">
          <mxGeometry width="50" height="50" relative="1" as="geometry">
            <mxPoint x="91" y="601" as="sourcePoint" />
            <mxPoint x="101" y="589" as="targetPoint" />
          </mxGeometry>
        </mxCell>
        <mxCell id="PppWaYoL0GaKZLXyUjvG-32" value="" style="endArrow=none;html=1;rounded=0;" parent="1" edge="1">
          <mxGeometry width="50" height="50" relative="1" as="geometry">
            <mxPoint x="93" y="677" as="sourcePoint" />
            <mxPoint x="103" y="665" as="targetPoint" />
          </mxGeometry>
        </mxCell>
        <mxCell id="PppWaYoL0GaKZLXyUjvG-33" value="" style="endArrow=none;html=1;rounded=0;" parent="1" edge="1">
          <mxGeometry width="50" height="50" relative="1" as="geometry">
            <mxPoint x="90" y="832" as="sourcePoint" />
            <mxPoint x="100" y="820" as="targetPoint" />
          </mxGeometry>
        </mxCell>
        <mxCell id="PppWaYoL0GaKZLXyUjvG-34" value="" style="endArrow=none;html=1;rounded=0;" parent="1" edge="1">
          <mxGeometry width="50" height="50" relative="1" as="geometry">
            <mxPoint x="90" y="865" as="sourcePoint" />
            <mxPoint x="100" y="853" as="targetPoint" />
          </mxGeometry>
        </mxCell>
        <mxCell id="PppWaYoL0GaKZLXyUjvG-35" value="" style="endArrow=none;html=1;rounded=0;" parent="1" edge="1">
          <mxGeometry width="50" height="50" relative="1" as="geometry">
            <mxPoint x="91" y="901" as="sourcePoint" />
            <mxPoint x="101" y="889" as="targetPoint" />
          </mxGeometry>
        </mxCell>
        <mxCell id="PppWaYoL0GaKZLXyUjvG-36" value="" style="endArrow=none;html=1;rounded=0;exitX=0.322;exitY=0;exitDx=0;exitDy=0;exitPerimeter=0;" parent="1" source="PppWaYoL0GaKZLXyUjvG-3" edge="1">
          <mxGeometry width="50" height="50" relative="1" as="geometry">
            <mxPoint x="340" y="191" as="sourcePoint" />
            <mxPoint x="410" y="121" as="targetPoint" />
          </mxGeometry>
        </mxCell>
        <mxCell id="PppWaYoL0GaKZLXyUjvG-37" value="" style="endArrow=none;html=1;rounded=0;" parent="1" edge="1">
          <mxGeometry width="50" height="50" relative="1" as="geometry">
            <mxPoint x="404" y="153" as="sourcePoint" />
            <mxPoint x="414" y="141" as="targetPoint" />
          </mxGeometry>
        </mxCell>
        <mxCell id="PppWaYoL0GaKZLXyUjvG-38" value="" style="endArrow=none;html=1;rounded=0;" parent="1" edge="1">
          <mxGeometry width="50" height="50" relative="1" as="geometry">
            <mxPoint x="367" y="154" as="sourcePoint" />
            <mxPoint x="377" y="142" as="targetPoint" />
          </mxGeometry>
        </mxCell>
        <mxCell id="PppWaYoL0GaKZLXyUjvG-39" value="" style="endArrow=none;html=1;rounded=0;" parent="1" edge="1">
          <mxGeometry width="50" height="50" relative="1" as="geometry">
            <mxPoint x="327" y="157" as="sourcePoint" />
            <mxPoint x="337" y="145" as="targetPoint" />
          </mxGeometry>
        </mxCell>
        <mxCell id="PppWaYoL0GaKZLXyUjvG-40" value="" style="endArrow=none;html=1;rounded=0;" parent="1" edge="1">
          <mxGeometry width="50" height="50" relative="1" as="geometry">
            <mxPoint x="281" y="157" as="sourcePoint" />
            <mxPoint x="291" y="145" as="targetPoint" />
          </mxGeometry>
        </mxCell>
        <mxCell id="PppWaYoL0GaKZLXyUjvG-41" value="" style="endArrow=none;html=1;rounded=0;" parent="1" edge="1">
          <mxGeometry width="50" height="50" relative="1" as="geometry">
            <mxPoint x="90" y="989" as="sourcePoint" />
            <mxPoint x="100" y="977" as="targetPoint" />
          </mxGeometry>
        </mxCell>
        <mxCell id="PppWaYoL0GaKZLXyUjvG-42" value="" style="endArrow=classic;html=1;rounded=0;" parent="1" edge="1">
          <mxGeometry width="50" height="50" relative="1" as="geometry">
            <mxPoint x="80" y="211" as="sourcePoint" />
            <mxPoint x="140" y="211" as="targetPoint" />
          </mxGeometry>
        </mxCell>
        <mxCell id="PppWaYoL0GaKZLXyUjvG-43" value="4" style="text;html=1;align=center;verticalAlign=middle;whiteSpace=wrap;rounded=0;" parent="1" vertex="1">
          <mxGeometry x="86" y="508" width="10" height="10" as="geometry" />
        </mxCell>
        <mxCell id="PppWaYoL0GaKZLXyUjvG-44" value="32" style="text;html=1;align=center;verticalAlign=middle;whiteSpace=wrap;rounded=0;" parent="1" vertex="1">
          <mxGeometry x="71" y="547" width="25" height="10" as="geometry" />
        </mxCell>
        <mxCell id="PppWaYoL0GaKZLXyUjvG-45" value="32" style="text;html=1;align=center;verticalAlign=middle;whiteSpace=wrap;rounded=0;" parent="1" vertex="1">
          <mxGeometry x="71" y="583" width="25" height="10" as="geometry" />
        </mxCell>
        <mxCell id="PppWaYoL0GaKZLXyUjvG-46" value="32" style="text;html=1;align=center;verticalAlign=middle;whiteSpace=wrap;rounded=0;" parent="1" vertex="1">
          <mxGeometry x="75" y="654" width="25" height="10" as="geometry" />
        </mxCell>
        <mxCell id="PppWaYoL0GaKZLXyUjvG-47" value="128" style="text;html=1;align=center;verticalAlign=middle;whiteSpace=wrap;rounded=0;" parent="1" vertex="1">
          <mxGeometry x="71" y="813" width="25" height="10" as="geometry" />
        </mxCell>
        <mxCell id="PppWaYoL0GaKZLXyUjvG-48" value="128" style="text;html=1;align=center;verticalAlign=middle;whiteSpace=wrap;rounded=0;" parent="1" vertex="1">
          <mxGeometry x="70" y="844" width="25" height="10" as="geometry" />
        </mxCell>
        <mxCell id="PppWaYoL0GaKZLXyUjvG-49" value="128" style="text;html=1;align=center;verticalAlign=middle;whiteSpace=wrap;rounded=0;" parent="1" vertex="1">
          <mxGeometry x="70" y="883" width="25" height="10" as="geometry" />
        </mxCell>
        <mxCell id="PppWaYoL0GaKZLXyUjvG-50" value="3" style="text;html=1;align=center;verticalAlign=middle;whiteSpace=wrap;rounded=0;" parent="1" vertex="1">
          <mxGeometry x="80" y="965" width="25" height="10" as="geometry" />
        </mxCell>
        <mxCell id="PppWaYoL0GaKZLXyUjvG-51" value="38" style="text;html=1;align=center;verticalAlign=middle;whiteSpace=wrap;rounded=0;" parent="1" vertex="1">
          <mxGeometry x="260" y="141" width="25" height="10" as="geometry" />
        </mxCell>
        <mxCell id="PppWaYoL0GaKZLXyUjvG-52" value="38" style="text;html=1;align=center;verticalAlign=middle;whiteSpace=wrap;rounded=0;" parent="1" vertex="1">
          <mxGeometry x="307" y="140" width="25" height="10" as="geometry" />
        </mxCell>
        <mxCell id="PppWaYoL0GaKZLXyUjvG-53" value="38" style="text;html=1;align=center;verticalAlign=middle;whiteSpace=wrap;rounded=0;" parent="1" vertex="1">
          <mxGeometry x="347" y="141" width="25" height="10" as="geometry" />
        </mxCell>
        <mxCell id="PppWaYoL0GaKZLXyUjvG-54" value="29" style="text;html=1;align=center;verticalAlign=middle;whiteSpace=wrap;rounded=0;" parent="1" vertex="1">
          <mxGeometry x="385" y="141" width="25" height="10" as="geometry" />
        </mxCell>
      </root>
    </mxGraphModel>
  </diagram>
  <diagram id="SAp-ZL-fOIYQGFTaa7lH" name="NN">
    <mxGraphModel dx="1949" dy="1204" grid="1" gridSize="10" guides="1" tooltips="1" connect="1" arrows="1" fold="1" page="1" pageScale="1" pageWidth="850" pageHeight="1100" math="0" shadow="0">
      <root>
        <mxCell id="0" />
        <mxCell id="NWd9kKED0FR72LeJ_sL0-10" value="Shapes" parent="0" />
        <mxCell id="KZ5TKGWdxwAjYAy_Q_vL-3" value="&lt;pre style=&quot;font-family: var(--font-stack--monospace); margin-top: 0px; margin-bottom: 0px; padding: 0.625rem 0.875rem; overflow: auto; box-sizing: border-box; line-height: 1.5; scrollbar-color: var(--color-foreground-border) transparent; scrollbar-width: thin;&quot; id=&quot;codecell3&quot;&gt;&lt;b&gt;&lt;font style=&quot;font-size: 16px;&quot;&gt;user_project_wrapper&lt;/font&gt;&lt;/b&gt;&lt;/pre&gt;" style="rounded=0;whiteSpace=wrap;html=1;verticalAlign=bottom;connectable=0;allowArrows=0;" parent="NWd9kKED0FR72LeJ_sL0-10" vertex="1">
          <mxGeometry x="390" y="456" width="730" height="920" as="geometry" />
        </mxCell>
        <mxCell id="KZ5TKGWdxwAjYAy_Q_vL-10" value="&lt;pre style=&quot;color: light-dark(rgb(0, 0, 0), rgb(237, 237, 237)); font-family: var(--font-stack--monospace); margin-top: 0px; margin-bottom: 0px; padding: 0.625rem 0.875rem; overflow: auto; box-sizing: border-box; line-height: 1.5; scrollbar-color: var(--color-foreground-border) transparent; scrollbar-width: thin;&quot; id=&quot;codecell3&quot;&gt;&lt;b&gt;&lt;font style=&quot;font-size: 16px;&quot;&gt;user_proj_example&lt;/font&gt;&lt;/b&gt;&lt;/pre&gt;" style="rounded=0;whiteSpace=wrap;html=1;verticalAlign=bottom;allowArrows=0;connectable=0;" parent="NWd9kKED0FR72LeJ_sL0-10" vertex="1">
          <mxGeometry x="512" y="546" width="508" height="770" as="geometry" />
        </mxCell>
        <mxCell id="KZ5TKGWdxwAjYAy_Q_vL-55" value="&lt;pre style=&quot;color: light-dark(rgb(0, 0, 0), rgb(237, 237, 237)); font-family: var(--font-stack--monospace); margin-top: 0px; margin-bottom: 0px; padding: 0.625rem 0.875rem; overflow: auto; box-sizing: border-box; line-height: 1.5; scrollbar-color: var(--color-foreground-border) transparent; scrollbar-width: thin;&quot; id=&quot;codecell3&quot;&gt;&lt;b&gt;&lt;font style=&quot;font-size: 16px;&quot;&gt;NN&lt;/font&gt;&lt;/b&gt;&lt;/pre&gt;" style="rounded=0;whiteSpace=wrap;html=1;verticalAlign=bottom;allowArrows=0;connectable=0;" parent="NWd9kKED0FR72LeJ_sL0-10" vertex="1">
          <mxGeometry x="576" y="580" width="364.63" height="506" as="geometry" />
        </mxCell>
        <mxCell id="KZ5TKGWdxwAjYAy_Q_vL-161" value="&lt;pre style=&quot;color: light-dark(rgb(0, 0, 0), rgb(237, 237, 237)); font-family: var(--font-stack--monospace); margin-top: 0px; margin-bottom: 0px; padding: 0.625rem 0.875rem; overflow: auto; box-sizing: border-box; line-height: 1.5; scrollbar-color: var(--color-foreground-border) transparent; scrollbar-width: thin;&quot; id=&quot;codecell3&quot;&gt;&lt;b&gt;&lt;font style=&quot;font-size: 16px;&quot;&gt;NN_registers&lt;/font&gt;&lt;/b&gt;&lt;/pre&gt;" style="rounded=0;whiteSpace=wrap;html=1;verticalAlign=bottom;connectable=0;allowArrows=0;" parent="NWd9kKED0FR72LeJ_sL0-10" vertex="1">
          <mxGeometry x="621" y="663" width="259" height="393" as="geometry" />
        </mxCell>
        <mxCell id="NWd9kKED0FR72LeJ_sL0-94" value="&lt;pre style=&quot;color: light-dark(rgb(0, 0, 0), rgb(237, 237, 237)); font-family: var(--font-stack--monospace); margin-top: 0px; margin-bottom: 0px; padding: 0.625rem 0.875rem; overflow: auto; box-sizing: border-box; line-height: 1.5; scrollbar-color: var(--color-foreground-border) transparent; scrollbar-width: thin;&quot; id=&quot;codecell3&quot;&gt;&lt;b&gt;&lt;font style=&quot;font-size: 16px;&quot;&gt;NN&lt;/font&gt;&lt;/b&gt;&lt;/pre&gt;" style="rounded=0;whiteSpace=wrap;html=1;verticalAlign=bottom;allowArrows=0;connectable=0;" vertex="1" parent="NWd9kKED0FR72LeJ_sL0-10">
          <mxGeometry x="1480" y="570" width="364.63" height="506" as="geometry" />
        </mxCell>
        <mxCell id="NWd9kKED0FR72LeJ_sL0-95" value="&lt;pre style=&quot;color: light-dark(rgb(0, 0, 0), rgb(237, 237, 237)); font-family: var(--font-stack--monospace); margin-top: 0px; margin-bottom: 0px; padding: 0.625rem 0.875rem; overflow: auto; box-sizing: border-box; line-height: 1.5; scrollbar-color: var(--color-foreground-border) transparent; scrollbar-width: thin;&quot; id=&quot;codecell3&quot;&gt;&lt;b&gt;&lt;font style=&quot;font-size: 16px;&quot;&gt;NN_registers&lt;/font&gt;&lt;/b&gt;&lt;/pre&gt;" style="rounded=0;whiteSpace=wrap;html=1;verticalAlign=bottom;connectable=0;allowArrows=0;" vertex="1" parent="NWd9kKED0FR72LeJ_sL0-10">
          <mxGeometry x="1525" y="653" width="259" height="393" as="geometry" />
        </mxCell>
        <mxCell id="NWd9kKED0FR72LeJ_sL0-11" value="Arrows" parent="0" />
        <mxCell id="KZ5TKGWdxwAjYAy_Q_vL-22" value="" style="endArrow=classic;html=1;rounded=0;" parent="NWd9kKED0FR72LeJ_sL0-11" edge="1">
          <mxGeometry width="50" height="50" relative="1" as="geometry">
            <mxPoint x="388" y="1129" as="sourcePoint" />
            <mxPoint x="328" y="1129" as="targetPoint" />
          </mxGeometry>
        </mxCell>
        <mxCell id="KZ5TKGWdxwAjYAy_Q_vL-23" value="" style="endArrow=classic;html=1;rounded=0;" parent="NWd9kKED0FR72LeJ_sL0-11" edge="1">
          <mxGeometry width="50" height="50" relative="1" as="geometry">
            <mxPoint x="328" y="1095" as="sourcePoint" />
            <mxPoint x="388" y="1095" as="targetPoint" />
          </mxGeometry>
        </mxCell>
        <mxCell id="KZ5TKGWdxwAjYAy_Q_vL-24" value="" style="endArrow=classic;html=1;rounded=0;" parent="NWd9kKED0FR72LeJ_sL0-11" edge="1">
          <mxGeometry width="50" height="50" relative="1" as="geometry">
            <mxPoint x="328" y="1165" as="sourcePoint" />
            <mxPoint x="388" y="1165" as="targetPoint" />
          </mxGeometry>
        </mxCell>
        <mxCell id="KZ5TKGWdxwAjYAy_Q_vL-25" value="" style="endArrow=classic;html=1;rounded=0;" parent="NWd9kKED0FR72LeJ_sL0-11" edge="1">
          <mxGeometry width="50" height="50" relative="1" as="geometry">
            <mxPoint x="388" y="1253" as="sourcePoint" />
            <mxPoint x="328" y="1253" as="targetPoint" />
          </mxGeometry>
        </mxCell>
        <mxCell id="KZ5TKGWdxwAjYAy_Q_vL-33" value="" style="endArrow=none;html=1;rounded=0;" parent="NWd9kKED0FR72LeJ_sL0-11" edge="1">
          <mxGeometry width="50" height="50" relative="1" as="geometry">
            <mxPoint x="340" y="1102" as="sourcePoint" />
            <mxPoint x="350" y="1090" as="targetPoint" />
          </mxGeometry>
        </mxCell>
        <mxCell id="KZ5TKGWdxwAjYAy_Q_vL-34" value="" style="endArrow=none;html=1;rounded=0;" parent="NWd9kKED0FR72LeJ_sL0-11" edge="1">
          <mxGeometry width="50" height="50" relative="1" as="geometry">
            <mxPoint x="340" y="1135" as="sourcePoint" />
            <mxPoint x="350" y="1123" as="targetPoint" />
          </mxGeometry>
        </mxCell>
        <mxCell id="KZ5TKGWdxwAjYAy_Q_vL-35" value="" style="endArrow=none;html=1;rounded=0;" parent="NWd9kKED0FR72LeJ_sL0-11" edge="1">
          <mxGeometry width="50" height="50" relative="1" as="geometry">
            <mxPoint x="341" y="1171" as="sourcePoint" />
            <mxPoint x="351" y="1159" as="targetPoint" />
          </mxGeometry>
        </mxCell>
        <mxCell id="KZ5TKGWdxwAjYAy_Q_vL-41" value="" style="endArrow=none;html=1;rounded=0;" parent="NWd9kKED0FR72LeJ_sL0-11" edge="1">
          <mxGeometry width="50" height="50" relative="1" as="geometry">
            <mxPoint x="340" y="1259" as="sourcePoint" />
            <mxPoint x="350" y="1247" as="targetPoint" />
          </mxGeometry>
        </mxCell>
        <mxCell id="KZ5TKGWdxwAjYAy_Q_vL-47" value="128" style="text;html=1;align=center;verticalAlign=middle;whiteSpace=wrap;rounded=0;" parent="NWd9kKED0FR72LeJ_sL0-11" vertex="1">
          <mxGeometry x="321" y="1083" width="25" height="10" as="geometry" />
        </mxCell>
        <mxCell id="KZ5TKGWdxwAjYAy_Q_vL-48" value="128" style="text;html=1;align=center;verticalAlign=middle;whiteSpace=wrap;rounded=0;" parent="NWd9kKED0FR72LeJ_sL0-11" vertex="1">
          <mxGeometry x="320" y="1114" width="25" height="10" as="geometry" />
        </mxCell>
        <mxCell id="KZ5TKGWdxwAjYAy_Q_vL-49" value="128" style="text;html=1;align=center;verticalAlign=middle;whiteSpace=wrap;rounded=0;" parent="NWd9kKED0FR72LeJ_sL0-11" vertex="1">
          <mxGeometry x="320" y="1153" width="25" height="10" as="geometry" />
        </mxCell>
        <mxCell id="KZ5TKGWdxwAjYAy_Q_vL-50" value="3" style="text;html=1;align=center;verticalAlign=middle;whiteSpace=wrap;rounded=0;" parent="NWd9kKED0FR72LeJ_sL0-11" vertex="1">
          <mxGeometry x="330" y="1235" width="25" height="10" as="geometry" />
        </mxCell>
        <mxCell id="KZ5TKGWdxwAjYAy_Q_vL-42" value="" style="endArrow=classic;html=1;rounded=0;" parent="NWd9kKED0FR72LeJ_sL0-11" edge="1">
          <mxGeometry width="50" height="50" relative="1" as="geometry">
            <mxPoint x="330" y="481" as="sourcePoint" />
            <mxPoint x="390" y="481" as="targetPoint" />
          </mxGeometry>
        </mxCell>
        <mxCell id="KZ5TKGWdxwAjYAy_Q_vL-36" value="" style="endArrow=none;html=1;rounded=0;exitX=0.322;exitY=0;exitDx=0;exitDy=0;exitPerimeter=0;" parent="NWd9kKED0FR72LeJ_sL0-11" edge="1">
          <mxGeometry width="50" height="50" relative="1" as="geometry">
            <mxPoint x="776.72" y="454.46" as="sourcePoint" />
            <mxPoint x="776.24" y="389.46" as="targetPoint" />
          </mxGeometry>
        </mxCell>
        <mxCell id="KZ5TKGWdxwAjYAy_Q_vL-37" value="" style="endArrow=none;html=1;rounded=0;" parent="NWd9kKED0FR72LeJ_sL0-11" edge="1">
          <mxGeometry width="50" height="50" relative="1" as="geometry">
            <mxPoint x="770.24" y="421.46" as="sourcePoint" />
            <mxPoint x="780.24" y="409.46" as="targetPoint" />
          </mxGeometry>
        </mxCell>
        <mxCell id="KZ5TKGWdxwAjYAy_Q_vL-54" value="29" style="text;html=1;align=center;verticalAlign=middle;whiteSpace=wrap;rounded=0;" parent="NWd9kKED0FR72LeJ_sL0-11" vertex="1">
          <mxGeometry x="751.24" y="409.46" width="25" height="10" as="geometry" />
        </mxCell>
        <mxCell id="KvdIEOg4rIZO1ruRxPiD-23" value="" style="endArrow=classic;html=1;rounded=0;" parent="NWd9kKED0FR72LeJ_sL0-11" edge="1">
          <mxGeometry width="50" height="50" relative="1" as="geometry">
            <mxPoint x="920" y="1011" as="sourcePoint" />
            <mxPoint x="880" y="1011" as="targetPoint" />
          </mxGeometry>
        </mxCell>
        <mxCell id="KvdIEOg4rIZO1ruRxPiD-26" value="" style="endArrow=classic;html=1;rounded=0;" parent="NWd9kKED0FR72LeJ_sL0-11" edge="1">
          <mxGeometry width="50" height="50" relative="1" as="geometry">
            <mxPoint x="900" y="760" as="sourcePoint" />
            <mxPoint x="879.99" y="760.33" as="targetPoint" />
          </mxGeometry>
        </mxCell>
        <mxCell id="KvdIEOg4rIZO1ruRxPiD-31" value="" style="shape=mxgraph.sysml.x;" parent="NWd9kKED0FR72LeJ_sL0-11" vertex="1">
          <mxGeometry x="897" y="809" width="5" height="5" as="geometry" />
        </mxCell>
        <mxCell id="KvdIEOg4rIZO1ruRxPiD-32" value="" style="shape=mxgraph.sysml.x;" parent="NWd9kKED0FR72LeJ_sL0-11" vertex="1">
          <mxGeometry x="897" y="822" width="5" height="5" as="geometry" />
        </mxCell>
        <mxCell id="KZ5TKGWdxwAjYAy_Q_vL-26" value="" style="endArrow=classic;html=1;rounded=0;exitX=0.101;exitY=0;exitDx=0;exitDy=0;exitPerimeter=0;" parent="NWd9kKED0FR72LeJ_sL0-11" edge="1">
          <mxGeometry width="50" height="50" relative="1" as="geometry">
            <mxPoint x="697.7280000000001" y="544.46" as="sourcePoint" />
            <mxPoint x="698.24" y="384.46" as="targetPoint" />
          </mxGeometry>
        </mxCell>
        <mxCell id="KZ5TKGWdxwAjYAy_Q_vL-27" value="" style="endArrow=classic;html=1;rounded=0;" parent="NWd9kKED0FR72LeJ_sL0-11" edge="1">
          <mxGeometry width="50" height="50" relative="1" as="geometry">
            <mxPoint x="746" y="560" as="sourcePoint" />
            <mxPoint x="746.24" y="384.46" as="targetPoint" />
          </mxGeometry>
        </mxCell>
        <mxCell id="KZ5TKGWdxwAjYAy_Q_vL-38" value="" style="endArrow=none;html=1;rounded=0;" parent="NWd9kKED0FR72LeJ_sL0-11" edge="1">
          <mxGeometry width="50" height="50" relative="1" as="geometry">
            <mxPoint x="733.24" y="422.46" as="sourcePoint" />
            <mxPoint x="743.24" y="410.46" as="targetPoint" />
          </mxGeometry>
        </mxCell>
        <mxCell id="KZ5TKGWdxwAjYAy_Q_vL-39" value="" style="endArrow=none;html=1;rounded=0;" parent="NWd9kKED0FR72LeJ_sL0-11" edge="1">
          <mxGeometry width="50" height="50" relative="1" as="geometry">
            <mxPoint x="693.24" y="425.46" as="sourcePoint" />
            <mxPoint x="703.24" y="413.46" as="targetPoint" />
          </mxGeometry>
        </mxCell>
        <mxCell id="KZ5TKGWdxwAjYAy_Q_vL-40" value="" style="endArrow=none;html=1;rounded=0;" parent="NWd9kKED0FR72LeJ_sL0-11" edge="1">
          <mxGeometry width="50" height="50" relative="1" as="geometry">
            <mxPoint x="647.24" y="425.46" as="sourcePoint" />
            <mxPoint x="657.24" y="413.46" as="targetPoint" />
          </mxGeometry>
        </mxCell>
        <mxCell id="KZ5TKGWdxwAjYAy_Q_vL-51" value="38" style="text;html=1;align=center;verticalAlign=middle;whiteSpace=wrap;rounded=0;" parent="NWd9kKED0FR72LeJ_sL0-11" vertex="1">
          <mxGeometry x="626.24" y="409.46" width="25" height="10" as="geometry" />
        </mxCell>
        <mxCell id="KZ5TKGWdxwAjYAy_Q_vL-52" value="38" style="text;html=1;align=center;verticalAlign=middle;whiteSpace=wrap;rounded=0;" parent="NWd9kKED0FR72LeJ_sL0-11" vertex="1">
          <mxGeometry x="673.24" y="408.46" width="25" height="10" as="geometry" />
        </mxCell>
        <mxCell id="KZ5TKGWdxwAjYAy_Q_vL-53" value="38" style="text;html=1;align=center;verticalAlign=middle;whiteSpace=wrap;rounded=0;" parent="NWd9kKED0FR72LeJ_sL0-11" vertex="1">
          <mxGeometry x="713.24" y="409.46" width="25" height="10" as="geometry" />
        </mxCell>
        <mxCell id="KZ5TKGWdxwAjYAy_Q_vL-12" value="" style="endArrow=classic;html=1;rounded=0;" parent="NWd9kKED0FR72LeJ_sL0-11" edge="1">
          <mxGeometry width="50" height="50" relative="1" as="geometry">
            <mxPoint x="331" y="678" as="sourcePoint" />
            <mxPoint x="620" y="678" as="targetPoint" />
          </mxGeometry>
        </mxCell>
        <mxCell id="KZ5TKGWdxwAjYAy_Q_vL-14" value="" style="endArrow=classic;html=1;rounded=0;entryX=0;entryY=0.182;entryDx=0;entryDy=0;entryPerimeter=0;" parent="NWd9kKED0FR72LeJ_sL0-11" edge="1">
          <mxGeometry width="50" height="50" relative="1" as="geometry">
            <mxPoint x="331" y="750" as="sourcePoint" />
            <mxPoint x="512" y="749.1400000000001" as="targetPoint" />
          </mxGeometry>
        </mxCell>
        <mxCell id="KZ5TKGWdxwAjYAy_Q_vL-15" value="" style="endArrow=classic;html=1;rounded=0;entryX=0.496;entryY=0.501;entryDx=0;entryDy=0;entryPerimeter=0;" parent="NWd9kKED0FR72LeJ_sL0-11" target="KZ5TKGWdxwAjYAy_Q_vL-114" edge="1">
          <mxGeometry width="50" height="50" relative="1" as="geometry">
            <mxPoint x="331" y="783" as="sourcePoint" />
            <mxPoint x="391" y="783" as="targetPoint" />
          </mxGeometry>
        </mxCell>
        <mxCell id="KZ5TKGWdxwAjYAy_Q_vL-16" value="" style="endArrow=classic;html=1;rounded=0;entryX=0.001;entryY=0.273;entryDx=0;entryDy=0;entryPerimeter=0;" parent="NWd9kKED0FR72LeJ_sL0-11" edge="1">
          <mxGeometry width="50" height="50" relative="1" as="geometry">
            <mxPoint x="331" y="818" as="sourcePoint" />
            <mxPoint x="512.6879999999999" y="819.21" as="targetPoint" />
          </mxGeometry>
        </mxCell>
        <mxCell id="KZ5TKGWdxwAjYAy_Q_vL-17" value="" style="endArrow=classic;html=1;rounded=0;entryX=0;entryY=0.32;entryDx=0;entryDy=0;entryPerimeter=0;" parent="NWd9kKED0FR72LeJ_sL0-11" edge="1">
          <mxGeometry width="50" height="50" relative="1" as="geometry">
            <mxPoint x="331" y="855" as="sourcePoint" />
            <mxPoint x="512" y="855.4000000000001" as="targetPoint" />
          </mxGeometry>
        </mxCell>
        <mxCell id="KZ5TKGWdxwAjYAy_Q_vL-29" value="" style="endArrow=none;html=1;rounded=0;" parent="NWd9kKED0FR72LeJ_sL0-11" edge="1">
          <mxGeometry width="50" height="50" relative="1" as="geometry">
            <mxPoint x="341" y="861" as="sourcePoint" />
            <mxPoint x="351" y="849" as="targetPoint" />
          </mxGeometry>
        </mxCell>
        <mxCell id="KZ5TKGWdxwAjYAy_Q_vL-30" value="" style="endArrow=none;html=1;rounded=0;" parent="NWd9kKED0FR72LeJ_sL0-11" edge="1">
          <mxGeometry width="50" height="50" relative="1" as="geometry">
            <mxPoint x="341" y="900" as="sourcePoint" />
            <mxPoint x="351" y="888" as="targetPoint" />
          </mxGeometry>
        </mxCell>
        <mxCell id="KZ5TKGWdxwAjYAy_Q_vL-31" value="" style="endArrow=none;html=1;rounded=0;" parent="NWd9kKED0FR72LeJ_sL0-11" edge="1">
          <mxGeometry width="50" height="50" relative="1" as="geometry">
            <mxPoint x="341" y="934" as="sourcePoint" />
            <mxPoint x="351" y="922" as="targetPoint" />
          </mxGeometry>
        </mxCell>
        <mxCell id="KZ5TKGWdxwAjYAy_Q_vL-32" value="" style="endArrow=none;html=1;rounded=0;" parent="NWd9kKED0FR72LeJ_sL0-11" edge="1">
          <mxGeometry width="50" height="50" relative="1" as="geometry">
            <mxPoint x="343" y="1010" as="sourcePoint" />
            <mxPoint x="353" y="998" as="targetPoint" />
          </mxGeometry>
        </mxCell>
        <mxCell id="NWd9kKED0FR72LeJ_sL0-12" style="edgeStyle=orthogonalEdgeStyle;rounded=0;orthogonalLoop=1;jettySize=auto;html=1;" edge="1" parent="NWd9kKED0FR72LeJ_sL0-11" source="KZ5TKGWdxwAjYAy_Q_vL-114">
          <mxGeometry relative="1" as="geometry">
            <mxPoint x="620" y="784" as="targetPoint" />
          </mxGeometry>
        </mxCell>
        <mxCell id="KZ5TKGWdxwAjYAy_Q_vL-114" value="" style="strokeWidth=2;html=1;shape=mxgraph.flowchart.annotation_2;align=left;labelPosition=right;pointerEvents=1;flipH=1;" parent="NWd9kKED0FR72LeJ_sL0-11" vertex="1">
          <mxGeometry x="512" y="749" width="50" height="70" as="geometry" />
        </mxCell>
        <mxCell id="KZ5TKGWdxwAjYAy_Q_vL-43" value="4" style="text;html=1;align=center;verticalAlign=middle;whiteSpace=wrap;rounded=0;" parent="NWd9kKED0FR72LeJ_sL0-11" vertex="1">
          <mxGeometry x="336" y="841" width="10" height="10" as="geometry" />
        </mxCell>
        <mxCell id="KZ5TKGWdxwAjYAy_Q_vL-44" value="32" style="text;html=1;align=center;verticalAlign=middle;whiteSpace=wrap;rounded=0;" parent="NWd9kKED0FR72LeJ_sL0-11" vertex="1">
          <mxGeometry x="321" y="880" width="25" height="10" as="geometry" />
        </mxCell>
        <mxCell id="KZ5TKGWdxwAjYAy_Q_vL-45" value="32" style="text;html=1;align=center;verticalAlign=middle;whiteSpace=wrap;rounded=0;" parent="NWd9kKED0FR72LeJ_sL0-11" vertex="1">
          <mxGeometry x="321" y="916" width="25" height="10" as="geometry" />
        </mxCell>
        <mxCell id="KZ5TKGWdxwAjYAy_Q_vL-46" value="32" style="text;html=1;align=center;verticalAlign=middle;whiteSpace=wrap;rounded=0;" parent="NWd9kKED0FR72LeJ_sL0-11" vertex="1">
          <mxGeometry x="325" y="987" width="25" height="10" as="geometry" />
        </mxCell>
        <mxCell id="KZ5TKGWdxwAjYAy_Q_vL-158" value="" style="endArrow=none;html=1;rounded=0;" parent="NWd9kKED0FR72LeJ_sL0-11" edge="1">
          <mxGeometry width="50" height="50" relative="1" as="geometry">
            <mxPoint x="960.63" y="719" as="sourcePoint" />
            <mxPoint x="970.63" y="707" as="targetPoint" />
          </mxGeometry>
        </mxCell>
        <mxCell id="KZ5TKGWdxwAjYAy_Q_vL-159" value="32" style="text;html=1;align=center;verticalAlign=middle;whiteSpace=wrap;rounded=0;" parent="NWd9kKED0FR72LeJ_sL0-11" vertex="1">
          <mxGeometry x="940.63" y="699" width="25" height="10" as="geometry" />
        </mxCell>
        <mxCell id="KvdIEOg4rIZO1ruRxPiD-2" value="" style="endArrow=classic;html=1;rounded=0;" parent="NWd9kKED0FR72LeJ_sL0-11" edge="1">
          <mxGeometry width="50" height="50" relative="1" as="geometry">
            <mxPoint x="879.99" y="824.33" as="sourcePoint" />
            <mxPoint x="919.99" y="824.33" as="targetPoint" />
          </mxGeometry>
        </mxCell>
        <mxCell id="KvdIEOg4rIZO1ruRxPiD-9" value="" style="endArrow=classic;html=1;rounded=0;" parent="NWd9kKED0FR72LeJ_sL0-11" edge="1">
          <mxGeometry width="50" height="50" relative="1" as="geometry">
            <mxPoint x="879.99" y="812.33" as="sourcePoint" />
            <mxPoint x="919.99" y="812.33" as="targetPoint" />
          </mxGeometry>
        </mxCell>
        <mxCell id="KvdIEOg4rIZO1ruRxPiD-10" value="" style="endArrow=classic;html=1;rounded=0;" parent="NWd9kKED0FR72LeJ_sL0-11" edge="1">
          <mxGeometry width="50" height="50" relative="1" as="geometry">
            <mxPoint x="879.99" y="838.33" as="sourcePoint" />
            <mxPoint x="919.99" y="838.33" as="targetPoint" />
          </mxGeometry>
        </mxCell>
        <mxCell id="KvdIEOg4rIZO1ruRxPiD-11" value="" style="endArrow=classic;html=1;rounded=0;" parent="NWd9kKED0FR72LeJ_sL0-11" edge="1">
          <mxGeometry width="50" height="50" relative="1" as="geometry">
            <mxPoint x="879.99" y="854.33" as="sourcePoint" />
            <mxPoint x="919.99" y="854.33" as="targetPoint" />
          </mxGeometry>
        </mxCell>
        <mxCell id="KvdIEOg4rIZO1ruRxPiD-12" value="" style="endArrow=classic;html=1;rounded=0;" parent="NWd9kKED0FR72LeJ_sL0-11" edge="1">
          <mxGeometry width="50" height="50" relative="1" as="geometry">
            <mxPoint x="879.99" y="880.33" as="sourcePoint" />
            <mxPoint x="919.99" y="880.33" as="targetPoint" />
          </mxGeometry>
        </mxCell>
        <mxCell id="KvdIEOg4rIZO1ruRxPiD-13" value="" style="endArrow=classic;html=1;rounded=0;" parent="NWd9kKED0FR72LeJ_sL0-11" edge="1">
          <mxGeometry width="50" height="50" relative="1" as="geometry">
            <mxPoint x="879.99" y="867.33" as="sourcePoint" />
            <mxPoint x="919.99" y="867.33" as="targetPoint" />
          </mxGeometry>
        </mxCell>
        <mxCell id="KvdIEOg4rIZO1ruRxPiD-14" value="" style="endArrow=classic;html=1;rounded=0;" parent="NWd9kKED0FR72LeJ_sL0-11" edge="1">
          <mxGeometry width="50" height="50" relative="1" as="geometry">
            <mxPoint x="879.99" y="895.33" as="sourcePoint" />
            <mxPoint x="919.99" y="895.33" as="targetPoint" />
          </mxGeometry>
        </mxCell>
        <mxCell id="KvdIEOg4rIZO1ruRxPiD-15" value="" style="endArrow=classic;html=1;rounded=0;" parent="NWd9kKED0FR72LeJ_sL0-11" edge="1">
          <mxGeometry width="50" height="50" relative="1" as="geometry">
            <mxPoint x="879.99" y="910.33" as="sourcePoint" />
            <mxPoint x="919.99" y="910.33" as="targetPoint" />
          </mxGeometry>
        </mxCell>
        <mxCell id="KvdIEOg4rIZO1ruRxPiD-16" value="" style="endArrow=classic;html=1;rounded=0;" parent="NWd9kKED0FR72LeJ_sL0-11" edge="1">
          <mxGeometry width="50" height="50" relative="1" as="geometry">
            <mxPoint x="880" y="923" as="sourcePoint" />
            <mxPoint x="920" y="923" as="targetPoint" />
          </mxGeometry>
        </mxCell>
        <mxCell id="KvdIEOg4rIZO1ruRxPiD-17" value="" style="endArrow=classic;html=1;rounded=0;" parent="NWd9kKED0FR72LeJ_sL0-11" edge="1">
          <mxGeometry width="50" height="50" relative="1" as="geometry">
            <mxPoint x="880" y="938" as="sourcePoint" />
            <mxPoint x="920" y="938" as="targetPoint" />
          </mxGeometry>
        </mxCell>
        <mxCell id="KvdIEOg4rIZO1ruRxPiD-18" value="" style="endArrow=classic;html=1;rounded=0;" parent="NWd9kKED0FR72LeJ_sL0-11" edge="1">
          <mxGeometry width="50" height="50" relative="1" as="geometry">
            <mxPoint x="880" y="953" as="sourcePoint" />
            <mxPoint x="920" y="953" as="targetPoint" />
          </mxGeometry>
        </mxCell>
        <mxCell id="KvdIEOg4rIZO1ruRxPiD-27" value="" style="endArrow=none;html=1;rounded=0;" parent="NWd9kKED0FR72LeJ_sL0-11" edge="1">
          <mxGeometry width="50" height="50" relative="1" as="geometry">
            <mxPoint x="918" y="1010" as="sourcePoint" />
            <mxPoint x="920" y="810" as="targetPoint" />
          </mxGeometry>
        </mxCell>
        <mxCell id="R7DRwII4xstvN0J2nOqB-2" value="" style="endArrow=none;html=1;rounded=0;" parent="NWd9kKED0FR72LeJ_sL0-11" edge="1">
          <mxGeometry width="50" height="50" relative="1" as="geometry">
            <mxPoint x="746.24" y="559.46" as="sourcePoint" />
            <mxPoint x="652.24" y="559" as="targetPoint" />
          </mxGeometry>
        </mxCell>
        <mxCell id="KZ5TKGWdxwAjYAy_Q_vL-28" value="" style="endArrow=classic;html=1;rounded=0;" parent="NWd9kKED0FR72LeJ_sL0-11" edge="1">
          <mxGeometry width="50" height="50" relative="1" as="geometry">
            <mxPoint x="652.24" y="387.46" as="sourcePoint" />
            <mxPoint x="650" y="663" as="targetPoint" />
          </mxGeometry>
        </mxCell>
        <mxCell id="KZ5TKGWdxwAjYAy_Q_vL-19" value="" style="endArrow=classic;html=1;rounded=0;" parent="NWd9kKED0FR72LeJ_sL0-11" edge="1">
          <mxGeometry width="50" height="50" relative="1" as="geometry">
            <mxPoint x="331" y="928" as="sourcePoint" />
            <mxPoint x="620" y="928" as="targetPoint" />
          </mxGeometry>
        </mxCell>
        <mxCell id="KZ5TKGWdxwAjYAy_Q_vL-20" value="" style="endArrow=classic;html=1;rounded=0;" parent="NWd9kKED0FR72LeJ_sL0-11" edge="1">
          <mxGeometry width="50" height="50" relative="1" as="geometry">
            <mxPoint x="620" y="963" as="sourcePoint" />
            <mxPoint x="331" y="963" as="targetPoint" />
          </mxGeometry>
        </mxCell>
        <mxCell id="KZ5TKGWdxwAjYAy_Q_vL-21" value="" style="endArrow=classic;html=1;rounded=0;" parent="NWd9kKED0FR72LeJ_sL0-11" edge="1">
          <mxGeometry width="50" height="50" relative="1" as="geometry">
            <mxPoint x="620" y="1003" as="sourcePoint" />
            <mxPoint x="331" y="1002.76" as="targetPoint" />
          </mxGeometry>
        </mxCell>
        <mxCell id="KZ5TKGWdxwAjYAy_Q_vL-18" value="" style="endArrow=classic;html=1;rounded=0;" parent="NWd9kKED0FR72LeJ_sL0-11" edge="1">
          <mxGeometry width="50" height="50" relative="1" as="geometry">
            <mxPoint x="331" y="893" as="sourcePoint" />
            <mxPoint x="620" y="893" as="targetPoint" />
          </mxGeometry>
        </mxCell>
        <mxCell id="KZ5TKGWdxwAjYAy_Q_vL-13" value="" style="endArrow=classic;html=1;rounded=0;" parent="NWd9kKED0FR72LeJ_sL0-11" edge="1">
          <mxGeometry width="50" height="50" relative="1" as="geometry">
            <mxPoint x="331" y="713" as="sourcePoint" />
            <mxPoint x="620" y="713" as="targetPoint" />
          </mxGeometry>
        </mxCell>
        <mxCell id="KvdIEOg4rIZO1ruRxPiD-30" value="" style="endArrow=none;html=1;rounded=0;" parent="NWd9kKED0FR72LeJ_sL0-11" edge="1">
          <mxGeometry width="50" height="50" relative="1" as="geometry">
            <mxPoint x="900" y="825" as="sourcePoint" />
            <mxPoint x="900" y="760" as="targetPoint" />
          </mxGeometry>
        </mxCell>
        <mxCell id="NWd9kKED0FR72LeJ_sL0-13" value="" style="endArrow=classic;html=1;rounded=0;" edge="1" parent="NWd9kKED0FR72LeJ_sL0-11">
          <mxGeometry width="50" height="50" relative="1" as="geometry">
            <mxPoint x="880" y="714" as="sourcePoint" />
            <mxPoint x="1000" y="714" as="targetPoint" />
          </mxGeometry>
        </mxCell>
        <mxCell id="NWd9kKED0FR72LeJ_sL0-192" value="" style="endArrow=classic;html=1;rounded=0;" edge="1" parent="NWd9kKED0FR72LeJ_sL0-11">
          <mxGeometry width="50" height="50" relative="1" as="geometry">
            <mxPoint x="1823" y="996.54" as="sourcePoint" />
            <mxPoint x="1783" y="996.54" as="targetPoint" />
          </mxGeometry>
        </mxCell>
        <mxCell id="NWd9kKED0FR72LeJ_sL0-193" value="" style="endArrow=classic;html=1;rounded=0;" edge="1" parent="NWd9kKED0FR72LeJ_sL0-11">
          <mxGeometry width="50" height="50" relative="1" as="geometry">
            <mxPoint x="1803" y="745.54" as="sourcePoint" />
            <mxPoint x="1782.99" y="745.8699999999999" as="targetPoint" />
          </mxGeometry>
        </mxCell>
        <mxCell id="NWd9kKED0FR72LeJ_sL0-194" value="" style="shape=mxgraph.sysml.x;" vertex="1" parent="NWd9kKED0FR72LeJ_sL0-11">
          <mxGeometry x="1800" y="794.54" width="5" height="5" as="geometry" />
        </mxCell>
        <mxCell id="NWd9kKED0FR72LeJ_sL0-195" value="" style="shape=mxgraph.sysml.x;" vertex="1" parent="NWd9kKED0FR72LeJ_sL0-11">
          <mxGeometry x="1800" y="807.54" width="5" height="5" as="geometry" />
        </mxCell>
        <mxCell id="NWd9kKED0FR72LeJ_sL0-197" value="" style="endArrow=classic;html=1;rounded=0;" edge="1" parent="NWd9kKED0FR72LeJ_sL0-11">
          <mxGeometry width="50" height="50" relative="1" as="geometry">
            <mxPoint x="1649" y="545.54" as="sourcePoint" />
            <mxPoint x="1649.24" y="370" as="targetPoint" />
          </mxGeometry>
        </mxCell>
        <mxCell id="NWd9kKED0FR72LeJ_sL0-198" value="" style="endArrow=none;html=1;rounded=0;" edge="1" parent="NWd9kKED0FR72LeJ_sL0-11">
          <mxGeometry width="50" height="50" relative="1" as="geometry">
            <mxPoint x="1636.24" y="408" as="sourcePoint" />
            <mxPoint x="1646.24" y="396" as="targetPoint" />
          </mxGeometry>
        </mxCell>
        <mxCell id="NWd9kKED0FR72LeJ_sL0-200" value="" style="endArrow=none;html=1;rounded=0;" edge="1" parent="NWd9kKED0FR72LeJ_sL0-11">
          <mxGeometry width="50" height="50" relative="1" as="geometry">
            <mxPoint x="1550.24" y="411" as="sourcePoint" />
            <mxPoint x="1560.24" y="399" as="targetPoint" />
          </mxGeometry>
        </mxCell>
        <mxCell id="NWd9kKED0FR72LeJ_sL0-201" value="38" style="text;html=1;align=center;verticalAlign=middle;whiteSpace=wrap;rounded=0;" vertex="1" parent="NWd9kKED0FR72LeJ_sL0-11">
          <mxGeometry x="1529.24" y="395" width="25" height="10" as="geometry" />
        </mxCell>
        <mxCell id="NWd9kKED0FR72LeJ_sL0-203" value="38" style="text;html=1;align=center;verticalAlign=middle;whiteSpace=wrap;rounded=0;" vertex="1" parent="NWd9kKED0FR72LeJ_sL0-11">
          <mxGeometry x="1616.24" y="395" width="25" height="10" as="geometry" />
        </mxCell>
        <mxCell id="NWd9kKED0FR72LeJ_sL0-204" value="" style="endArrow=classic;html=1;rounded=0;" edge="1" parent="NWd9kKED0FR72LeJ_sL0-11">
          <mxGeometry width="50" height="50" relative="1" as="geometry">
            <mxPoint x="1234" y="663.54" as="sourcePoint" />
            <mxPoint x="1523" y="663.54" as="targetPoint" />
          </mxGeometry>
        </mxCell>
        <mxCell id="NWd9kKED0FR72LeJ_sL0-205" value="" style="endArrow=classic;html=1;rounded=0;entryX=0;entryY=0.182;entryDx=0;entryDy=0;entryPerimeter=0;" edge="1" parent="NWd9kKED0FR72LeJ_sL0-11">
          <mxGeometry width="50" height="50" relative="1" as="geometry">
            <mxPoint x="1234" y="735.54" as="sourcePoint" />
            <mxPoint x="1415" y="734.6800000000001" as="targetPoint" />
          </mxGeometry>
        </mxCell>
        <mxCell id="NWd9kKED0FR72LeJ_sL0-206" value="" style="endArrow=classic;html=1;rounded=0;entryX=0.496;entryY=0.501;entryDx=0;entryDy=0;entryPerimeter=0;" edge="1" target="NWd9kKED0FR72LeJ_sL0-214" parent="NWd9kKED0FR72LeJ_sL0-11">
          <mxGeometry width="50" height="50" relative="1" as="geometry">
            <mxPoint x="1234" y="768.54" as="sourcePoint" />
            <mxPoint x="1294" y="768.54" as="targetPoint" />
          </mxGeometry>
        </mxCell>
        <mxCell id="NWd9kKED0FR72LeJ_sL0-207" value="" style="endArrow=classic;html=1;rounded=0;entryX=0.001;entryY=0.273;entryDx=0;entryDy=0;entryPerimeter=0;" edge="1" parent="NWd9kKED0FR72LeJ_sL0-11">
          <mxGeometry width="50" height="50" relative="1" as="geometry">
            <mxPoint x="1234" y="803.54" as="sourcePoint" />
            <mxPoint x="1415.6879999999999" y="804.75" as="targetPoint" />
          </mxGeometry>
        </mxCell>
        <mxCell id="NWd9kKED0FR72LeJ_sL0-210" value="" style="endArrow=none;html=1;rounded=0;" edge="1" parent="NWd9kKED0FR72LeJ_sL0-11">
          <mxGeometry width="50" height="50" relative="1" as="geometry">
            <mxPoint x="1244" y="885.54" as="sourcePoint" />
            <mxPoint x="1254" y="873.54" as="targetPoint" />
          </mxGeometry>
        </mxCell>
        <mxCell id="NWd9kKED0FR72LeJ_sL0-211" value="" style="endArrow=none;html=1;rounded=0;" edge="1" parent="NWd9kKED0FR72LeJ_sL0-11">
          <mxGeometry width="50" height="50" relative="1" as="geometry">
            <mxPoint x="1244" y="919.54" as="sourcePoint" />
            <mxPoint x="1254" y="907.54" as="targetPoint" />
          </mxGeometry>
        </mxCell>
        <mxCell id="NWd9kKED0FR72LeJ_sL0-212" value="" style="endArrow=none;html=1;rounded=0;" edge="1" parent="NWd9kKED0FR72LeJ_sL0-11">
          <mxGeometry width="50" height="50" relative="1" as="geometry">
            <mxPoint x="1246" y="995.54" as="sourcePoint" />
            <mxPoint x="1256" y="983.54" as="targetPoint" />
          </mxGeometry>
        </mxCell>
        <mxCell id="NWd9kKED0FR72LeJ_sL0-213" style="edgeStyle=orthogonalEdgeStyle;rounded=0;orthogonalLoop=1;jettySize=auto;html=1;" edge="1" source="NWd9kKED0FR72LeJ_sL0-214" parent="NWd9kKED0FR72LeJ_sL0-11">
          <mxGeometry relative="1" as="geometry">
            <mxPoint x="1523" y="769.54" as="targetPoint" />
          </mxGeometry>
        </mxCell>
        <mxCell id="NWd9kKED0FR72LeJ_sL0-214" value="" style="strokeWidth=2;html=1;shape=mxgraph.flowchart.annotation_2;align=left;labelPosition=right;pointerEvents=1;flipH=1;" vertex="1" parent="NWd9kKED0FR72LeJ_sL0-11">
          <mxGeometry x="1415" y="734.54" width="50" height="70" as="geometry" />
        </mxCell>
        <mxCell id="NWd9kKED0FR72LeJ_sL0-216" value="32" style="text;html=1;align=center;verticalAlign=middle;whiteSpace=wrap;rounded=0;" vertex="1" parent="NWd9kKED0FR72LeJ_sL0-11">
          <mxGeometry x="1224" y="865.54" width="25" height="10" as="geometry" />
        </mxCell>
        <mxCell id="NWd9kKED0FR72LeJ_sL0-217" value="32" style="text;html=1;align=center;verticalAlign=middle;whiteSpace=wrap;rounded=0;" vertex="1" parent="NWd9kKED0FR72LeJ_sL0-11">
          <mxGeometry x="1224" y="901.54" width="25" height="10" as="geometry" />
        </mxCell>
        <mxCell id="NWd9kKED0FR72LeJ_sL0-218" value="32" style="text;html=1;align=center;verticalAlign=middle;whiteSpace=wrap;rounded=0;" vertex="1" parent="NWd9kKED0FR72LeJ_sL0-11">
          <mxGeometry x="1228" y="972.54" width="25" height="10" as="geometry" />
        </mxCell>
        <mxCell id="NWd9kKED0FR72LeJ_sL0-219" value="" style="endArrow=none;html=1;rounded=0;" edge="1" parent="NWd9kKED0FR72LeJ_sL0-11">
          <mxGeometry width="50" height="50" relative="1" as="geometry">
            <mxPoint x="1863.63" y="704.54" as="sourcePoint" />
            <mxPoint x="1873.63" y="692.54" as="targetPoint" />
          </mxGeometry>
        </mxCell>
        <mxCell id="NWd9kKED0FR72LeJ_sL0-220" value="32" style="text;html=1;align=center;verticalAlign=middle;whiteSpace=wrap;rounded=0;" vertex="1" parent="NWd9kKED0FR72LeJ_sL0-11">
          <mxGeometry x="1843.63" y="684.54" width="25" height="10" as="geometry" />
        </mxCell>
        <mxCell id="NWd9kKED0FR72LeJ_sL0-221" value="" style="endArrow=classic;html=1;rounded=0;" edge="1" parent="NWd9kKED0FR72LeJ_sL0-11">
          <mxGeometry width="50" height="50" relative="1" as="geometry">
            <mxPoint x="1782.99" y="809.8699999999999" as="sourcePoint" />
            <mxPoint x="1822.99" y="809.8699999999999" as="targetPoint" />
          </mxGeometry>
        </mxCell>
        <mxCell id="NWd9kKED0FR72LeJ_sL0-222" value="" style="endArrow=classic;html=1;rounded=0;" edge="1" parent="NWd9kKED0FR72LeJ_sL0-11">
          <mxGeometry width="50" height="50" relative="1" as="geometry">
            <mxPoint x="1782.99" y="796.8699999999999" as="sourcePoint" />
            <mxPoint x="1822.99" y="796.8699999999999" as="targetPoint" />
          </mxGeometry>
        </mxCell>
        <mxCell id="NWd9kKED0FR72LeJ_sL0-223" value="" style="endArrow=classic;html=1;rounded=0;" edge="1" parent="NWd9kKED0FR72LeJ_sL0-11">
          <mxGeometry width="50" height="50" relative="1" as="geometry">
            <mxPoint x="1782.99" y="823.8699999999999" as="sourcePoint" />
            <mxPoint x="1822.99" y="823.8699999999999" as="targetPoint" />
          </mxGeometry>
        </mxCell>
        <mxCell id="NWd9kKED0FR72LeJ_sL0-224" value="" style="endArrow=classic;html=1;rounded=0;" edge="1" parent="NWd9kKED0FR72LeJ_sL0-11">
          <mxGeometry width="50" height="50" relative="1" as="geometry">
            <mxPoint x="1782.99" y="839.8699999999999" as="sourcePoint" />
            <mxPoint x="1822.99" y="839.8699999999999" as="targetPoint" />
          </mxGeometry>
        </mxCell>
        <mxCell id="NWd9kKED0FR72LeJ_sL0-225" value="" style="endArrow=classic;html=1;rounded=0;" edge="1" parent="NWd9kKED0FR72LeJ_sL0-11">
          <mxGeometry width="50" height="50" relative="1" as="geometry">
            <mxPoint x="1782.99" y="865.8699999999999" as="sourcePoint" />
            <mxPoint x="1822.99" y="865.8699999999999" as="targetPoint" />
          </mxGeometry>
        </mxCell>
        <mxCell id="NWd9kKED0FR72LeJ_sL0-226" value="" style="endArrow=classic;html=1;rounded=0;" edge="1" parent="NWd9kKED0FR72LeJ_sL0-11">
          <mxGeometry width="50" height="50" relative="1" as="geometry">
            <mxPoint x="1782.99" y="852.8699999999999" as="sourcePoint" />
            <mxPoint x="1822.99" y="852.8699999999999" as="targetPoint" />
          </mxGeometry>
        </mxCell>
        <mxCell id="NWd9kKED0FR72LeJ_sL0-227" value="" style="endArrow=classic;html=1;rounded=0;" edge="1" parent="NWd9kKED0FR72LeJ_sL0-11">
          <mxGeometry width="50" height="50" relative="1" as="geometry">
            <mxPoint x="1782.99" y="880.8699999999999" as="sourcePoint" />
            <mxPoint x="1822.99" y="880.8699999999999" as="targetPoint" />
          </mxGeometry>
        </mxCell>
        <mxCell id="NWd9kKED0FR72LeJ_sL0-228" value="" style="endArrow=classic;html=1;rounded=0;" edge="1" parent="NWd9kKED0FR72LeJ_sL0-11">
          <mxGeometry width="50" height="50" relative="1" as="geometry">
            <mxPoint x="1782.99" y="895.8699999999999" as="sourcePoint" />
            <mxPoint x="1822.99" y="895.8699999999999" as="targetPoint" />
          </mxGeometry>
        </mxCell>
        <mxCell id="NWd9kKED0FR72LeJ_sL0-229" value="" style="endArrow=classic;html=1;rounded=0;" edge="1" parent="NWd9kKED0FR72LeJ_sL0-11">
          <mxGeometry width="50" height="50" relative="1" as="geometry">
            <mxPoint x="1783" y="908.54" as="sourcePoint" />
            <mxPoint x="1823" y="908.54" as="targetPoint" />
          </mxGeometry>
        </mxCell>
        <mxCell id="NWd9kKED0FR72LeJ_sL0-230" value="" style="endArrow=classic;html=1;rounded=0;" edge="1" parent="NWd9kKED0FR72LeJ_sL0-11">
          <mxGeometry width="50" height="50" relative="1" as="geometry">
            <mxPoint x="1783" y="923.54" as="sourcePoint" />
            <mxPoint x="1823" y="923.54" as="targetPoint" />
          </mxGeometry>
        </mxCell>
        <mxCell id="NWd9kKED0FR72LeJ_sL0-231" value="" style="endArrow=classic;html=1;rounded=0;" edge="1" parent="NWd9kKED0FR72LeJ_sL0-11">
          <mxGeometry width="50" height="50" relative="1" as="geometry">
            <mxPoint x="1783" y="938.54" as="sourcePoint" />
            <mxPoint x="1823" y="938.54" as="targetPoint" />
          </mxGeometry>
        </mxCell>
        <mxCell id="NWd9kKED0FR72LeJ_sL0-232" value="" style="endArrow=none;html=1;rounded=0;" edge="1" parent="NWd9kKED0FR72LeJ_sL0-11">
          <mxGeometry width="50" height="50" relative="1" as="geometry">
            <mxPoint x="1821" y="995.54" as="sourcePoint" />
            <mxPoint x="1823" y="795.54" as="targetPoint" />
          </mxGeometry>
        </mxCell>
        <mxCell id="NWd9kKED0FR72LeJ_sL0-233" value="" style="endArrow=none;html=1;rounded=0;" edge="1" parent="NWd9kKED0FR72LeJ_sL0-11">
          <mxGeometry width="50" height="50" relative="1" as="geometry">
            <mxPoint x="1649.24" y="545" as="sourcePoint" />
            <mxPoint x="1555.24" y="544.54" as="targetPoint" />
          </mxGeometry>
        </mxCell>
        <mxCell id="NWd9kKED0FR72LeJ_sL0-234" value="" style="endArrow=classic;html=1;rounded=0;" edge="1" parent="NWd9kKED0FR72LeJ_sL0-11">
          <mxGeometry width="50" height="50" relative="1" as="geometry">
            <mxPoint x="1555.24" y="373" as="sourcePoint" />
            <mxPoint x="1553" y="648.54" as="targetPoint" />
          </mxGeometry>
        </mxCell>
        <mxCell id="NWd9kKED0FR72LeJ_sL0-235" value="" style="endArrow=classic;html=1;rounded=0;" edge="1" parent="NWd9kKED0FR72LeJ_sL0-11">
          <mxGeometry width="50" height="50" relative="1" as="geometry">
            <mxPoint x="1234" y="913.54" as="sourcePoint" />
            <mxPoint x="1523" y="913.54" as="targetPoint" />
          </mxGeometry>
        </mxCell>
        <mxCell id="NWd9kKED0FR72LeJ_sL0-236" value="" style="endArrow=classic;html=1;rounded=0;" edge="1" parent="NWd9kKED0FR72LeJ_sL0-11">
          <mxGeometry width="50" height="50" relative="1" as="geometry">
            <mxPoint x="1523" y="948.54" as="sourcePoint" />
            <mxPoint x="1234" y="948.54" as="targetPoint" />
          </mxGeometry>
        </mxCell>
        <mxCell id="NWd9kKED0FR72LeJ_sL0-237" value="" style="endArrow=classic;html=1;rounded=0;" edge="1" parent="NWd9kKED0FR72LeJ_sL0-11">
          <mxGeometry width="50" height="50" relative="1" as="geometry">
            <mxPoint x="1523" y="988.54" as="sourcePoint" />
            <mxPoint x="1234" y="988.3" as="targetPoint" />
          </mxGeometry>
        </mxCell>
        <mxCell id="NWd9kKED0FR72LeJ_sL0-238" value="" style="endArrow=classic;html=1;rounded=0;" edge="1" parent="NWd9kKED0FR72LeJ_sL0-11">
          <mxGeometry width="50" height="50" relative="1" as="geometry">
            <mxPoint x="1234" y="878.54" as="sourcePoint" />
            <mxPoint x="1523" y="878.54" as="targetPoint" />
          </mxGeometry>
        </mxCell>
        <mxCell id="NWd9kKED0FR72LeJ_sL0-239" value="" style="endArrow=classic;html=1;rounded=0;" edge="1" parent="NWd9kKED0FR72LeJ_sL0-11">
          <mxGeometry width="50" height="50" relative="1" as="geometry">
            <mxPoint x="1234" y="698.54" as="sourcePoint" />
            <mxPoint x="1523" y="698.54" as="targetPoint" />
          </mxGeometry>
        </mxCell>
        <mxCell id="NWd9kKED0FR72LeJ_sL0-240" value="" style="endArrow=none;html=1;rounded=0;" edge="1" parent="NWd9kKED0FR72LeJ_sL0-11">
          <mxGeometry width="50" height="50" relative="1" as="geometry">
            <mxPoint x="1803" y="810.54" as="sourcePoint" />
            <mxPoint x="1803" y="745.54" as="targetPoint" />
          </mxGeometry>
        </mxCell>
        <mxCell id="NWd9kKED0FR72LeJ_sL0-241" value="" style="endArrow=classic;html=1;rounded=0;" edge="1" parent="NWd9kKED0FR72LeJ_sL0-11">
          <mxGeometry width="50" height="50" relative="1" as="geometry">
            <mxPoint x="1783" y="699.54" as="sourcePoint" />
            <mxPoint x="1903" y="699.54" as="targetPoint" />
          </mxGeometry>
        </mxCell>
        <mxCell id="NWd9kKED0FR72LeJ_sL0-9" value="Text" parent="0" />
        <mxCell id="NWd9kKED0FR72LeJ_sL0-8" value="&lt;pre style=&quot;font-size: var(--code-font-size); text-align: right; font-family: var(--font-stack--monospace); margin-top: 0px; margin-bottom: 0px; padding: 0.625rem 0.875rem; overflow: auto; box-sizing: border-box; line-height: 1.5; scrollbar-color: var(--color-foreground-border) transparent; scrollbar-width: thin;&quot; id=&quot;codecell3&quot;&gt;analog_io&lt;/pre&gt;" style="text;html=1;align=left;verticalAlign=middle;rounded=0;overflow=width;noLabel=0;expand=1;autosize=1;resizeWidth=1;whiteSpace=wrap;resizable=0;resizeHeight=0;autosizeGrid=1;horizontal=0;" vertex="1" parent="NWd9kKED0FR72LeJ_sL0-9">
          <mxGeometry x="733.74" y="460" width="60" height="90" as="geometry" />
        </mxCell>
        <mxCell id="NWd9kKED0FR72LeJ_sL0-3" value="user_clock2" style="text;align=left;verticalAlign=middle;rounded=0;overflow=width;noLabel=0;expand=1;autosize=1;resizeWidth=1;whiteSpace=wrap;resizable=0;resizeHeight=0;autosizeGrid=1;" vertex="1" parent="NWd9kKED0FR72LeJ_sL0-9">
          <mxGeometry x="400" y="460" width="120" height="50" as="geometry" />
        </mxCell>
        <mxCell id="NWd9kKED0FR72LeJ_sL0-5" value="&lt;pre style=&quot;font-size: var(--code-font-size); font-family: var(--font-stack--monospace); margin-top: 0px; margin-bottom: 0px; padding: 0.625rem 0.875rem; overflow: auto; box-sizing: border-box; line-height: 1.5; scrollbar-color: var(--color-foreground-border) transparent; scrollbar-width: thin;&quot; id=&quot;codecell3&quot;&gt;la_data_in&lt;br&gt;&lt;br&gt;la_data_out&lt;br&gt;&lt;br&gt;la_oenb&lt;/pre&gt;" style="text;html=1;align=left;verticalAlign=middle;rounded=0;overflow=width;noLabel=0;expand=1;autosize=1;resizeWidth=1;whiteSpace=wrap;resizable=0;resizeHeight=0;autosizeGrid=1;" vertex="1" parent="NWd9kKED0FR72LeJ_sL0-9">
          <mxGeometry x="397" y="1071" width="110" height="120" as="geometry" />
        </mxCell>
        <mxCell id="NWd9kKED0FR72LeJ_sL0-6" value="&lt;pre style=&quot;font-size: var(--code-font-size); font-family: var(--font-stack--monospace); margin-top: 0px; margin-bottom: 0px; padding: 0.625rem 0.875rem; overflow: auto; box-sizing: border-box; line-height: 1.5; scrollbar-color: var(--color-foreground-border) transparent; scrollbar-width: thin;&quot; id=&quot;codecell3&quot;&gt;user_irq&lt;/pre&gt;" style="text;html=1;align=left;verticalAlign=middle;rounded=0;overflow=width;noLabel=0;expand=1;autosize=1;resizeWidth=1;whiteSpace=wrap;resizable=0;resizeHeight=0;autosizeGrid=1;" vertex="1" parent="NWd9kKED0FR72LeJ_sL0-9">
          <mxGeometry x="397" y="1235" width="90" height="50" as="geometry" />
        </mxCell>
        <mxCell id="KZ5TKGWdxwAjYAy_Q_vL-6" value="&lt;pre style=&quot;margin-top: 0px; margin-bottom: 0px; padding: 0.625rem 0.875rem; overflow: auto; box-sizing: border-box; line-height: 1.5; scrollbar-color: var(--color-foreground-border) transparent; scrollbar-width: thin;&quot; id=&quot;codecell3&quot;&gt;&lt;font face=&quot;Helvetica&quot;&gt;wb_clk_i&lt;br/&gt;&lt;br/&gt;wb_rst_i&lt;br/&gt;&lt;br/&gt;wbs_stb_i&lt;br/&gt;&lt;br/&gt;wbs_cyc_i&lt;br/&gt;&lt;br/&gt;wbs_we_i&lt;br/&gt;&lt;br/&gt;wbs_sel_i&lt;br/&gt;&lt;br/&gt;wbs_dat_i&lt;br/&gt;&lt;br/&gt;wbs_adr_i&lt;br/&gt;&lt;br/&gt;wbs_ack_o&lt;br/&gt;&lt;br/&gt;wbs_dat_o&lt;/font&gt;&lt;font face=&quot;var(--font-stack--monospace)&quot;&gt;&lt;br&gt;&lt;/font&gt;&lt;/pre&gt;" style="text;html=1;align=left;verticalAlign=middle;whiteSpace=wrap;rounded=0;resizeWidth=1;resizeHeight=1;" parent="NWd9kKED0FR72LeJ_sL0-9" vertex="1">
          <mxGeometry x="414" y="598.74" width="76" height="452" as="geometry" />
        </mxCell>
        <mxCell id="KZ5TKGWdxwAjYAy_Q_vL-167" value="opA&#xa;opB&#xa;w11&#xa;w12&#xa;w21&#xa;w22&#xa;b1&#xa;b2&#xa;w31&#xa;w32&#xa;b3" style="text;whiteSpace=wrap;align=right;verticalAlign=middle;spacingTop=1;spacing=2;spacingBottom=0;horizontal=1;" parent="NWd9kKED0FR72LeJ_sL0-9" vertex="1">
          <mxGeometry x="809.6800000000001" y="790" width="60" height="180" as="geometry" />
        </mxCell>
        <mxCell id="KZ5TKGWdxwAjYAy_Q_vL-9" value="&lt;pre style=&quot;font-family: var(--font-stack--monospace); font-size: var(--code-font-size); margin-top: 0px; margin-bottom: 0px; padding: 0.625rem 0.875rem; overflow: auto; box-sizing: border-box; line-height: 1.5; scrollbar-color: var(--color-foreground-border) transparent; scrollbar-width: thin; font-weight: 400;&quot; id=&quot;codecell3&quot;&gt;io_in&lt;br&gt;&lt;br&gt;io_out&lt;br&gt;&lt;br&gt;io_oeb&lt;/pre&gt;&lt;pre style=&quot;font-family: var(--font-stack--monospace); font-size: var(--code-font-size); margin-top: 0px; margin-bottom: 0px; padding: 0.625rem 0.875rem; overflow: auto; box-sizing: border-box; line-height: 1.5; scrollbar-color: var(--color-foreground-border) transparent; scrollbar-width: thin; font-weight: 400;&quot; id=&quot;codecell3&quot;&gt;&lt;br&gt;&lt;/pre&gt;" style="text;html=1;align=right;verticalAlign=middle;whiteSpace=wrap;rounded=0;resizeWidth=1;resizeHeight=1;fontSize=14;fontStyle=1;rotation=-90;" parent="NWd9kKED0FR72LeJ_sL0-9" vertex="1">
          <mxGeometry x="662.25" y="399.03" width="81.75" height="210.12" as="geometry" />
        </mxCell>
        <mxCell id="KZ5TKGWdxwAjYAy_Q_vL-155" value="final_res" style="text;html=1;align=right;verticalAlign=middle;whiteSpace=wrap;rounded=0;" parent="NWd9kKED0FR72LeJ_sL0-9" vertex="1">
          <mxGeometry x="869.6800000000001" y="690" width="60.63" height="24" as="geometry" />
        </mxCell>
        <mxCell id="KZ5TKGWdxwAjYAy_Q_vL-154" value="ready" style="text;html=1;align=right;verticalAlign=middle;whiteSpace=wrap;rounded=0;" parent="NWd9kKED0FR72LeJ_sL0-9" vertex="1">
          <mxGeometry x="885.63" y="739" width="40" height="24" as="geometry" />
        </mxCell>
        <mxCell id="KZ5TKGWdxwAjYAy_Q_vL-83" value="round_mode" style="text;html=1;align=left;verticalAlign=middle;whiteSpace=wrap;rounded=0;rotation=-90;" parent="NWd9kKED0FR72LeJ_sL0-9" vertex="1">
          <mxGeometry x="600" y="609.15" width="66.88" height="30" as="geometry" />
        </mxCell>
        <mxCell id="KZ5TKGWdxwAjYAy_Q_vL-81" value="clk" style="text;html=1;align=left;verticalAlign=middle;whiteSpace=wrap;rounded=0;" parent="NWd9kKED0FR72LeJ_sL0-9" vertex="1">
          <mxGeometry x="580" y="650" width="20" height="30" as="geometry" />
        </mxCell>
        <mxCell id="KZ5TKGWdxwAjYAy_Q_vL-113" value="wren" style="text;html=1;align=left;verticalAlign=middle;whiteSpace=wrap;rounded=0;" parent="NWd9kKED0FR72LeJ_sL0-9" vertex="1">
          <mxGeometry x="579" y="750" width="40" height="24" as="geometry" />
        </mxCell>
        <mxCell id="KvdIEOg4rIZO1ruRxPiD-20" value="&lt;font color=&quot;#ff1717&quot;&gt;NN_result&lt;/font&gt;" style="text;html=1;align=right;verticalAlign=middle;whiteSpace=wrap;rounded=0;" parent="NWd9kKED0FR72LeJ_sL0-9" vertex="1">
          <mxGeometry x="809.05" y="997" width="60.63" height="24" as="geometry" />
        </mxCell>
        <mxCell id="KZ5TKGWdxwAjYAy_Q_vL-82" value="rst_l" style="text;html=1;align=left;verticalAlign=middle;whiteSpace=wrap;rounded=0;" parent="NWd9kKED0FR72LeJ_sL0-9" vertex="1">
          <mxGeometry x="580" y="690" width="40" height="24" as="geometry" />
        </mxCell>
        <mxCell id="NWd9kKED0FR72LeJ_sL0-100" value="&lt;pre style=&quot;margin-top: 0px; margin-bottom: 0px; padding: 0.625rem 0.875rem; overflow: auto; box-sizing: border-box; line-height: 1.5; scrollbar-color: var(--color-foreground-border) transparent; scrollbar-width: thin;&quot; id=&quot;codecell3&quot;&gt;&lt;font face=&quot;Helvetica&quot;&gt;wb_clk_i&lt;br&gt;&lt;br&gt;wb_rst_i&lt;br&gt;&lt;br&gt;wbs_stb_i&lt;br&gt;&lt;br&gt;wbs_cyc_i&lt;br&gt;&lt;br&gt;wbs_we_i&lt;br&gt;&lt;br&gt;&lt;br&gt;&lt;br&gt;wbs_dat_i&lt;br&gt;&lt;br&gt;wbs_adr_i&lt;br&gt;&lt;br&gt;wbs_ack_o&lt;br&gt;&lt;br&gt;wbs_dat_o&lt;/font&gt;&lt;font face=&quot;var(--font-stack--monospace)&quot;&gt;&lt;br&gt;&lt;/font&gt;&lt;/pre&gt;" style="text;html=1;align=left;verticalAlign=middle;whiteSpace=wrap;rounded=0;resizeWidth=1;resizeHeight=1;" vertex="1" parent="NWd9kKED0FR72LeJ_sL0-9">
          <mxGeometry x="1317" y="581.46" width="76" height="452" as="geometry" />
        </mxCell>
        <mxCell id="NWd9kKED0FR72LeJ_sL0-101" value="opA&#xa;opB&#xa;w11&#xa;w12&#xa;w21&#xa;w22&#xa;b1&#xa;b2&#xa;w31&#xa;w32&#xa;b3" style="text;whiteSpace=wrap;align=right;verticalAlign=middle;spacingTop=1;spacing=2;spacingBottom=0;horizontal=1;" vertex="1" parent="NWd9kKED0FR72LeJ_sL0-9">
          <mxGeometry x="1712.68" y="772.72" width="60" height="180" as="geometry" />
        </mxCell>
        <mxCell id="NWd9kKED0FR72LeJ_sL0-102" value="&lt;pre style=&quot;font-family: var(--font-stack--monospace); font-size: var(--code-font-size); margin-top: 0px; margin-bottom: 0px; padding: 0.625rem 0.875rem; overflow: auto; box-sizing: border-box; line-height: 1.5; scrollbar-color: var(--color-foreground-border) transparent; scrollbar-width: thin; font-weight: 400;&quot; id=&quot;codecell3&quot;&gt;io_in&lt;br&gt;&lt;br&gt;&lt;br&gt;&lt;br&gt;io_oeb&lt;/pre&gt;&lt;pre style=&quot;font-family: var(--font-stack--monospace); font-size: var(--code-font-size); margin-top: 0px; margin-bottom: 0px; padding: 0.625rem 0.875rem; overflow: auto; box-sizing: border-box; line-height: 1.5; scrollbar-color: var(--color-foreground-border) transparent; scrollbar-width: thin; font-weight: 400;&quot; id=&quot;codecell3&quot;&gt;&lt;br&gt;&lt;/pre&gt;" style="text;html=1;align=right;verticalAlign=top;whiteSpace=wrap;rounded=0;resizeWidth=1;resizeHeight=1;fontSize=14;fontStyle=1;rotation=-90;" vertex="1" parent="NWd9kKED0FR72LeJ_sL0-9">
          <mxGeometry x="1540" y="422" width="81.75" height="128.25" as="geometry" />
        </mxCell>
        <mxCell id="NWd9kKED0FR72LeJ_sL0-103" value="final_res" style="text;html=1;align=right;verticalAlign=middle;whiteSpace=wrap;rounded=0;" vertex="1" parent="NWd9kKED0FR72LeJ_sL0-9">
          <mxGeometry x="1772.68" y="672.72" width="60.63" height="24" as="geometry" />
        </mxCell>
        <mxCell id="NWd9kKED0FR72LeJ_sL0-104" value="ready" style="text;html=1;align=right;verticalAlign=middle;whiteSpace=wrap;rounded=0;" vertex="1" parent="NWd9kKED0FR72LeJ_sL0-9">
          <mxGeometry x="1788.63" y="721.72" width="40" height="24" as="geometry" />
        </mxCell>
        <mxCell id="NWd9kKED0FR72LeJ_sL0-105" value="round_mode" style="text;html=1;align=left;verticalAlign=middle;whiteSpace=wrap;rounded=0;rotation=-90;" vertex="1" parent="NWd9kKED0FR72LeJ_sL0-9">
          <mxGeometry x="1503" y="591.87" width="66.88" height="30" as="geometry" />
        </mxCell>
        <mxCell id="NWd9kKED0FR72LeJ_sL0-106" value="clk" style="text;html=1;align=left;verticalAlign=middle;whiteSpace=wrap;rounded=0;" vertex="1" parent="NWd9kKED0FR72LeJ_sL0-9">
          <mxGeometry x="1483" y="632.72" width="20" height="30" as="geometry" />
        </mxCell>
        <mxCell id="NWd9kKED0FR72LeJ_sL0-107" value="wren" style="text;html=1;align=left;verticalAlign=middle;whiteSpace=wrap;rounded=0;" vertex="1" parent="NWd9kKED0FR72LeJ_sL0-9">
          <mxGeometry x="1482" y="732.72" width="40" height="24" as="geometry" />
        </mxCell>
        <mxCell id="NWd9kKED0FR72LeJ_sL0-108" value="&lt;font color=&quot;#ff1717&quot;&gt;NN_result&lt;/font&gt;" style="text;html=1;align=right;verticalAlign=middle;whiteSpace=wrap;rounded=0;" vertex="1" parent="NWd9kKED0FR72LeJ_sL0-9">
          <mxGeometry x="1712.05" y="979.72" width="60.63" height="24" as="geometry" />
        </mxCell>
        <mxCell id="NWd9kKED0FR72LeJ_sL0-109" value="rst_l" style="text;html=1;align=left;verticalAlign=middle;whiteSpace=wrap;rounded=0;" vertex="1" parent="NWd9kKED0FR72LeJ_sL0-9">
          <mxGeometry x="1483" y="672.72" width="40" height="24" as="geometry" />
        </mxCell>
      </root>
    </mxGraphModel>
  </diagram>
  <diagram id="X4-n9pVp4KFoiN-lW5Ho" name="sigmoid_approx">
    <mxGraphModel dx="3064" dy="843" grid="1" gridSize="10" guides="1" tooltips="1" connect="1" arrows="1" fold="1" page="1" pageScale="1" pageWidth="850" pageHeight="1100" math="1" shadow="0">
      <root>
        <mxCell id="0" />
        <mxCell id="1" style="" parent="0" />
        <mxCell id="Al5RjWG4StTg0TqS3_SQ-1" value="&lt;pre style=&quot;color: light-dark(rgb(0, 0, 0), rgb(237, 237, 237)); font-size: 12px; font-weight: 400; font-family: var(--font-stack--monospace); margin-top: 0px; margin-bottom: 0px; padding: 0.625rem 0.875rem; overflow: auto; box-sizing: border-box; line-height: 1.5; scrollbar-color: var(--color-foreground-border) transparent; scrollbar-width: thin;&quot; id=&quot;codecell3&quot;&gt;&lt;b&gt;&lt;font style=&quot;font-size: 16px;&quot;&gt;sigmoid_approx&lt;/font&gt;&lt;/b&gt;&lt;/pre&gt;" style="whiteSpace=wrap;html=1;verticalAlign=bottom;fontStyle=1;fontSize=16;" vertex="1" parent="1">
          <mxGeometry x="-940" y="520" width="240" height="240" as="geometry" />
        </mxCell>
        <mxCell id="6mGe7-6CJQ_e46OVgSRq-5" value="" style="endArrow=classic;html=1;rounded=0;entryX=-0.014;entryY=0.097;entryDx=0;entryDy=0;entryPerimeter=0;" parent="1" edge="1">
          <mxGeometry width="50" height="50" relative="1" as="geometry">
            <mxPoint x="254" y="241" as="sourcePoint" />
            <mxPoint x="320.0799999999999" y="240.8599999999999" as="targetPoint" />
          </mxGeometry>
        </mxCell>
        <mxCell id="6mGe7-6CJQ_e46OVgSRq-6" value="" style="endArrow=classic;html=1;rounded=0;entryX=-0.014;entryY=0.097;entryDx=0;entryDy=0;entryPerimeter=0;" parent="1" edge="1">
          <mxGeometry width="50" height="50" relative="1" as="geometry">
            <mxPoint x="253.92" y="277.64" as="sourcePoint" />
            <mxPoint x="319.92" y="277.64" as="targetPoint" />
          </mxGeometry>
        </mxCell>
        <mxCell id="6mGe7-6CJQ_e46OVgSRq-7" value="" style="endArrow=classic;html=1;rounded=0;entryX=-0.014;entryY=0.097;entryDx=0;entryDy=0;entryPerimeter=0;" parent="1" edge="1">
          <mxGeometry width="50" height="50" relative="1" as="geometry">
            <mxPoint x="254" y="306.5" as="sourcePoint" />
            <mxPoint x="320" y="306.5" as="targetPoint" />
          </mxGeometry>
        </mxCell>
        <mxCell id="d6eWRsU02cRF1YsGSrP_-1" value="" style="endArrow=none;html=1;rounded=0;" parent="1" edge="1">
          <mxGeometry width="50" height="50" relative="1" as="geometry">
            <mxPoint x="263" y="312" as="sourcePoint" />
            <mxPoint x="273" y="300" as="targetPoint" />
          </mxGeometry>
        </mxCell>
        <mxCell id="Ty70xgNAXTaMkRQMDubr-2" value="3" style="text;html=1;align=center;verticalAlign=middle;whiteSpace=wrap;rounded=0;" parent="1" vertex="1">
          <mxGeometry x="250" y="293" width="25" height="10" as="geometry" />
        </mxCell>
        <mxCell id="Ty70xgNAXTaMkRQMDubr-4" value="" style="endArrow=none;html=1;rounded=0;" parent="1" edge="1">
          <mxGeometry width="50" height="50" relative="1" as="geometry">
            <mxPoint x="288" y="343" as="sourcePoint" />
            <mxPoint x="298" y="331" as="targetPoint" />
          </mxGeometry>
        </mxCell>
        <mxCell id="Ty70xgNAXTaMkRQMDubr-9" value="" style="group" parent="1" vertex="1" connectable="0">
          <mxGeometry x="320" y="199" width="1570" height="630" as="geometry" />
        </mxCell>
        <mxCell id="WazmfTlhcLbzUyGEdfMs-1" value="" style="rounded=0;whiteSpace=wrap;html=1;strokeWidth=2;" parent="Ty70xgNAXTaMkRQMDubr-9" vertex="1">
          <mxGeometry width="1550" height="630" as="geometry" />
        </mxCell>
        <mxCell id="_-BCDSOv3X4xlNBPhS0M-1" value="&lt;pre id=&quot;codecell3&quot; style=&quot;forced-color-adjust: none; color: light-dark(rgb(0, 0, 0), rgb(237, 237, 237)); font-size: 12px; font-style: normal; font-variant-ligatures: normal; font-variant-caps: normal; font-weight: 400; letter-spacing: normal; orphans: 2; text-indent: 0px; text-transform: none; widows: 2; word-spacing: 0px; -webkit-text-stroke-width: 0px; text-decoration-thickness: initial; text-decoration-style: initial; text-decoration-color: initial; font-family: var(--font-stack--monospace); margin: 0px; padding: 0.625rem 0.875rem; overflow: auto; box-sizing: border-box; line-height: 1.5; scrollbar-color: var(--color-foreground-border) transparent; scrollbar-width: thin;&quot;&gt;&lt;b style=&quot;forced-color-adjust: none;&quot;&gt;&lt;font style=&quot;forced-color-adjust: none; font-size: 16px;&quot;&gt;sigmoid_approx&lt;/font&gt;&lt;/b&gt;&lt;/pre&gt;" style="text;whiteSpace=wrap;html=1;verticalAlign=middle;align=center;" parent="Ty70xgNAXTaMkRQMDubr-9" vertex="1">
          <mxGeometry x="184.3807763401109" y="595.6363636363636" width="285.7502940682238" height="34.36363636363637" as="geometry" />
        </mxCell>
        <mxCell id="_-BCDSOv3X4xlNBPhS0M-4" value="clk" style="text;html=1;align=left;verticalAlign=middle;whiteSpace=wrap;rounded=0;" parent="Ty70xgNAXTaMkRQMDubr-9" vertex="1">
          <mxGeometry x="15.963703579230383" y="22.90909090909091" width="95.78222147538229" height="34.36363636363637" as="geometry" />
        </mxCell>
        <mxCell id="6mGe7-6CJQ_e46OVgSRq-1" value="rst_l" style="text;html=1;align=left;verticalAlign=middle;whiteSpace=wrap;rounded=0;" parent="Ty70xgNAXTaMkRQMDubr-9" vertex="1">
          <mxGeometry x="15.963703579230383" y="57.27272727272727" width="95.78222147538229" height="34.36363636363637" as="geometry" />
        </mxCell>
        <mxCell id="6mGe7-6CJQ_e46OVgSRq-2" value="&lt;span style=&quot;color: rgb(0, 0, 0); font-family: Helvetica; font-size: 12px; font-style: normal; font-variant-ligatures: normal; font-variant-caps: normal; font-weight: 400; letter-spacing: normal; orphans: 2; text-align: left; text-indent: 0px; text-transform: none; widows: 2; word-spacing: 0px; -webkit-text-stroke-width: 0px; white-space: normal; background-color: rgb(251, 251, 251); text-decoration-thickness: initial; text-decoration-style: initial; text-decoration-color: initial; display: inline !important; float: none;&quot;&gt;round_mode&lt;/span&gt;" style="text;whiteSpace=wrap;html=1;" parent="Ty70xgNAXTaMkRQMDubr-9" vertex="1">
          <mxGeometry x="15.963703579230383" y="91.63636363636364" width="159.63703579230383" height="22.90909090909091" as="geometry" />
        </mxCell>
        <mxCell id="Ty70xgNAXTaMkRQMDubr-16" style="edgeStyle=orthogonalEdgeStyle;rounded=0;orthogonalLoop=1;jettySize=auto;html=1;entryX=0;entryY=0.5;entryDx=0;entryDy=0;" parent="Ty70xgNAXTaMkRQMDubr-9" source="Ty70xgNAXTaMkRQMDubr-11" target="Ty70xgNAXTaMkRQMDubr-10" edge="1">
          <mxGeometry relative="1" as="geometry" />
        </mxCell>
        <mxCell id="Ty70xgNAXTaMkRQMDubr-11" value="-" style="whiteSpace=wrap;html=1;aspect=fixed;verticalAlign=middle;fontStyle=1;fontSize=16;" parent="Ty70xgNAXTaMkRQMDubr-9" vertex="1">
          <mxGeometry x="59.99533333333334" y="124.14999999999998" width="30" height="30" as="geometry" />
        </mxCell>
        <mxCell id="Ty70xgNAXTaMkRQMDubr-10" value="&lt;div&gt;add_sub_inst1&lt;/div&gt;" style="whiteSpace=wrap;html=1;verticalAlign=bottom;fontStyle=1;fontSize=16;" parent="Ty70xgNAXTaMkRQMDubr-9" vertex="1">
          <mxGeometry x="184.38" y="109.69" width="128.79" height="58.91" as="geometry" />
        </mxCell>
        <mxCell id="Ty70xgNAXTaMkRQMDubr-42" style="edgeStyle=orthogonalEdgeStyle;rounded=0;orthogonalLoop=1;jettySize=auto;html=1;entryX=0;entryY=0.25;entryDx=0;entryDy=0;" parent="Ty70xgNAXTaMkRQMDubr-9" source="Ty70xgNAXTaMkRQMDubr-19" target="Ty70xgNAXTaMkRQMDubr-10" edge="1">
          <mxGeometry relative="1" as="geometry" />
        </mxCell>
        <mxCell id="Ty70xgNAXTaMkRQMDubr-19" value="1" style="text;html=1;align=center;verticalAlign=middle;whiteSpace=wrap;rounded=0;fontStyle=1" parent="Ty70xgNAXTaMkRQMDubr-9" vertex="1">
          <mxGeometry x="105" y="113.55" width="15" height="20" as="geometry" />
        </mxCell>
        <mxCell id="Ty70xgNAXTaMkRQMDubr-20" value="x_neg" style="text;whiteSpace=wrap;html=1;" parent="Ty70xgNAXTaMkRQMDubr-9" vertex="1">
          <mxGeometry x="116.21000000000001" y="133.54999999999995" width="34.70666666666666" height="34.36" as="geometry" />
        </mxCell>
        <mxCell id="Ty70xgNAXTaMkRQMDubr-43" value="&lt;br&gt;&lt;div&gt;div_inst1&lt;/div&gt;" style="whiteSpace=wrap;html=1;verticalAlign=bottom;fontStyle=1;fontSize=16;" parent="Ty70xgNAXTaMkRQMDubr-9" vertex="1">
          <mxGeometry x="382.05" y="180" width="128.79" height="100" as="geometry" />
        </mxCell>
        <mxCell id="Ty70xgNAXTaMkRQMDubr-44" style="edgeStyle=orthogonalEdgeStyle;rounded=0;orthogonalLoop=1;jettySize=auto;html=1;entryX=-0.001;entryY=0.133;entryDx=0;entryDy=0;exitX=1;exitY=0.75;exitDx=0;exitDy=0;entryPerimeter=0;" parent="Ty70xgNAXTaMkRQMDubr-9" source="Ty70xgNAXTaMkRQMDubr-10" target="Ty70xgNAXTaMkRQMDubr-43" edge="1">
          <mxGeometry relative="1" as="geometry" />
        </mxCell>
        <mxCell id="Ty70xgNAXTaMkRQMDubr-45" value="one_minus_x" style="text;whiteSpace=wrap;" parent="Ty70xgNAXTaMkRQMDubr-9" vertex="1">
          <mxGeometry x="313.17" y="133.54999999999998" width="80" height="30" as="geometry" />
        </mxCell>
        <mxCell id="Ty70xgNAXTaMkRQMDubr-47" style="edgeStyle=orthogonalEdgeStyle;rounded=0;orthogonalLoop=1;jettySize=auto;html=1;entryX=-0.001;entryY=0.359;entryDx=0;entryDy=0;entryPerimeter=0;" parent="Ty70xgNAXTaMkRQMDubr-9" source="Ty70xgNAXTaMkRQMDubr-11" target="Ty70xgNAXTaMkRQMDubr-43" edge="1">
          <mxGeometry relative="1" as="geometry">
            <mxPoint x="380" y="216" as="targetPoint" />
            <Array as="points">
              <mxPoint x="160" y="139" />
              <mxPoint x="160" y="216" />
            </Array>
          </mxGeometry>
        </mxCell>
        <mxCell id="Ty70xgNAXTaMkRQMDubr-48" value="$$1-x$$" style="text;html=1;align=center;verticalAlign=middle;resizable=0;points=[];autosize=1;strokeColor=none;fillColor=none;fontStyle=1" parent="Ty70xgNAXTaMkRQMDubr-9" vertex="1">
          <mxGeometry x="213.77999999999997" y="114.55000000000001" width="70" height="30" as="geometry" />
        </mxCell>
        <mxCell id="Ty70xgNAXTaMkRQMDubr-49" value="&lt;span style=&quot;font-weight: normal;&quot;&gt;$$\frac{-x}{1-x}$$&lt;/span&gt;" style="text;html=1;align=center;verticalAlign=middle;resizable=0;points=[];autosize=1;strokeColor=none;fillColor=none;fontStyle=1" parent="Ty70xgNAXTaMkRQMDubr-9" vertex="1">
          <mxGeometry x="385" y="211" width="120" height="30" as="geometry" />
        </mxCell>
        <mxCell id="Ty70xgNAXTaMkRQMDubr-54" style="edgeStyle=orthogonalEdgeStyle;rounded=0;orthogonalLoop=1;jettySize=auto;html=1;entryX=0;entryY=0.5;entryDx=0;entryDy=0;" parent="Ty70xgNAXTaMkRQMDubr-9" source="Ty70xgNAXTaMkRQMDubr-52" target="Ty70xgNAXTaMkRQMDubr-43" edge="1">
          <mxGeometry relative="1" as="geometry" />
        </mxCell>
        <mxCell id="Ty70xgNAXTaMkRQMDubr-52" value="div_inst1_in_valid" style="text;whiteSpace=wrap;" parent="Ty70xgNAXTaMkRQMDubr-9" vertex="1">
          <mxGeometry x="250" y="220.5" width="96.83" height="19" as="geometry" />
        </mxCell>
        <mxCell id="Ty70xgNAXTaMkRQMDubr-55" value="&lt;div&gt;add_sub_inst2&lt;/div&gt;" style="whiteSpace=wrap;html=1;verticalAlign=bottom;fontStyle=1;fontSize=16;" parent="Ty70xgNAXTaMkRQMDubr-9" vertex="1">
          <mxGeometry x="184.38" y="322" width="128.79" height="58.91" as="geometry" />
        </mxCell>
        <mxCell id="Ty70xgNAXTaMkRQMDubr-56" style="edgeStyle=orthogonalEdgeStyle;rounded=0;orthogonalLoop=1;jettySize=auto;html=1;entryX=0;entryY=0.25;entryDx=0;entryDy=0;" parent="Ty70xgNAXTaMkRQMDubr-9" source="Ty70xgNAXTaMkRQMDubr-57" target="Ty70xgNAXTaMkRQMDubr-55" edge="1">
          <mxGeometry relative="1" as="geometry" />
        </mxCell>
        <mxCell id="Ty70xgNAXTaMkRQMDubr-57" value="1" style="text;html=1;align=center;verticalAlign=middle;whiteSpace=wrap;rounded=0;fontStyle=1" parent="Ty70xgNAXTaMkRQMDubr-9" vertex="1">
          <mxGeometry x="105" y="325.86" width="15" height="20" as="geometry" />
        </mxCell>
        <mxCell id="Ty70xgNAXTaMkRQMDubr-60" value="$$1+x$$" style="text;html=1;align=center;verticalAlign=middle;resizable=0;points=[];autosize=1;strokeColor=none;fillColor=none;fontStyle=1" parent="Ty70xgNAXTaMkRQMDubr-9" vertex="1">
          <mxGeometry x="213.77999999999997" y="325.86" width="70" height="30" as="geometry" />
        </mxCell>
        <mxCell id="Ty70xgNAXTaMkRQMDubr-139" style="edgeStyle=orthogonalEdgeStyle;rounded=0;orthogonalLoop=1;jettySize=auto;html=1;entryX=0.002;entryY=0.528;entryDx=0;entryDy=0;exitX=1.004;exitY=0.321;exitDx=0;exitDy=0;exitPerimeter=0;entryPerimeter=0;" parent="Ty70xgNAXTaMkRQMDubr-9" source="Ty70xgNAXTaMkRQMDubr-91" target="Ty70xgNAXTaMkRQMDubr-133" edge="1">
          <mxGeometry relative="1" as="geometry">
            <Array as="points">
              <mxPoint x="610" y="413" />
            </Array>
          </mxGeometry>
        </mxCell>
        <mxCell id="Ty70xgNAXTaMkRQMDubr-146" style="edgeStyle=orthogonalEdgeStyle;rounded=0;orthogonalLoop=1;jettySize=auto;html=1;exitX=0.993;exitY=0.805;exitDx=0;exitDy=0;exitPerimeter=0;" parent="Ty70xgNAXTaMkRQMDubr-9" source="Ty70xgNAXTaMkRQMDubr-91" edge="1">
          <mxGeometry relative="1" as="geometry">
            <mxPoint x="1450" y="261" as="targetPoint" />
          </mxGeometry>
        </mxCell>
        <mxCell id="Ty70xgNAXTaMkRQMDubr-91" value="&lt;br&gt;&lt;div&gt;div_inst2&lt;/div&gt;" style="whiteSpace=wrap;html=1;verticalAlign=bottom;fontStyle=1;fontSize=16;" parent="Ty70xgNAXTaMkRQMDubr-9" vertex="1">
          <mxGeometry x="377.65" y="380.91" width="128.79" height="100" as="geometry" />
        </mxCell>
        <mxCell id="Ty70xgNAXTaMkRQMDubr-92" style="edgeStyle=orthogonalEdgeStyle;rounded=0;orthogonalLoop=1;jettySize=auto;html=1;entryX=-0.003;entryY=0.303;entryDx=0;entryDy=0;entryPerimeter=0;" parent="Ty70xgNAXTaMkRQMDubr-9" source="Ty70xgNAXTaMkRQMDubr-55" target="Ty70xgNAXTaMkRQMDubr-91" edge="1">
          <mxGeometry relative="1" as="geometry" />
        </mxCell>
        <mxCell id="Ty70xgNAXTaMkRQMDubr-93" value="one_plus_x" style="text;whiteSpace=wrap;" parent="Ty70xgNAXTaMkRQMDubr-9" vertex="1">
          <mxGeometry x="313.16999999999996" y="322" width="90" height="40" as="geometry" />
        </mxCell>
        <mxCell id="Ty70xgNAXTaMkRQMDubr-95" value="in_x" style="text;whiteSpace=wrap;html=1;" parent="Ty70xgNAXTaMkRQMDubr-9" vertex="1">
          <mxGeometry x="25.289999999999978" y="324.82" width="34.70666666666666" height="34.36" as="geometry" />
        </mxCell>
        <mxCell id="Ty70xgNAXTaMkRQMDubr-128" value="&lt;span style=&quot;color: rgb(0, 0, 0); font-family: Helvetica; font-size: 12px; font-style: normal; font-variant-ligatures: normal; font-variant-caps: normal; font-weight: 400; letter-spacing: normal; orphans: 2; text-align: center; text-indent: 0px; text-transform: none; widows: 2; word-spacing: 0px; -webkit-text-stroke-width: 0px; white-space: nowrap; background-color: rgb(251, 251, 251); text-decoration-thickness: initial; text-decoration-style: initial; text-decoration-color: initial; display: inline !important; float: none;&quot;&gt;$$\frac{x}{1+x}$$&lt;/span&gt;" style="text;whiteSpace=wrap;html=1;verticalAlign=middle;" parent="Ty70xgNAXTaMkRQMDubr-9" vertex="1">
          <mxGeometry x="418.55999999999995" y="401" width="46.97" height="40" as="geometry" />
        </mxCell>
        <mxCell id="RISkshFeyZUZgNBDWYs6-3" style="edgeStyle=orthogonalEdgeStyle;rounded=0;orthogonalLoop=1;jettySize=auto;html=1;entryX=-0.001;entryY=0.696;entryDx=0;entryDy=0;exitX=1.012;exitY=0.671;exitDx=0;exitDy=0;exitPerimeter=0;entryPerimeter=0;" parent="Ty70xgNAXTaMkRQMDubr-9" source="Ty70xgNAXTaMkRQMDubr-129" target="RISkshFeyZUZgNBDWYs6-1" edge="1">
          <mxGeometry relative="1" as="geometry">
            <Array as="points">
              <mxPoint x="846" y="221" />
            </Array>
          </mxGeometry>
        </mxCell>
        <mxCell id="Ty70xgNAXTaMkRQMDubr-129" value="&lt;div&gt;add_sub_inst3&lt;/div&gt;" style="whiteSpace=wrap;html=1;verticalAlign=bottom;fontStyle=1;fontSize=16;" parent="Ty70xgNAXTaMkRQMDubr-9" vertex="1">
          <mxGeometry x="651.84" y="181.95000000000005" width="128.79" height="58.91" as="geometry" />
        </mxCell>
        <mxCell id="Ty70xgNAXTaMkRQMDubr-130" style="edgeStyle=orthogonalEdgeStyle;rounded=0;orthogonalLoop=1;jettySize=auto;html=1;entryX=0;entryY=0.25;entryDx=0;entryDy=0;" parent="Ty70xgNAXTaMkRQMDubr-9" source="Ty70xgNAXTaMkRQMDubr-131" target="Ty70xgNAXTaMkRQMDubr-129" edge="1">
          <mxGeometry relative="1" as="geometry" />
        </mxCell>
        <mxCell id="Ty70xgNAXTaMkRQMDubr-131" value="1" style="text;html=1;align=center;verticalAlign=middle;whiteSpace=wrap;rounded=0;fontStyle=1" parent="Ty70xgNAXTaMkRQMDubr-9" vertex="1">
          <mxGeometry x="530" y="185.95000000000005" width="15" height="20" as="geometry" />
        </mxCell>
        <mxCell id="Ty70xgNAXTaMkRQMDubr-132" value="&lt;span style=&quot;font-weight: 400;&quot;&gt;$$1+\frac{-x}{1-x}$$&lt;/span&gt;" style="text;html=1;align=center;verticalAlign=middle;resizable=0;points=[];autosize=1;strokeColor=none;fillColor=none;fontStyle=1" parent="Ty70xgNAXTaMkRQMDubr-9" vertex="1">
          <mxGeometry x="640.78" y="186.95000000000005" width="130" height="30" as="geometry" />
        </mxCell>
        <mxCell id="RISkshFeyZUZgNBDWYs6-8" style="edgeStyle=orthogonalEdgeStyle;rounded=0;orthogonalLoop=1;jettySize=auto;html=1;entryX=0.012;entryY=0.842;entryDx=0;entryDy=0;exitX=1;exitY=0.75;exitDx=0;exitDy=0;entryPerimeter=0;" parent="Ty70xgNAXTaMkRQMDubr-9" source="Ty70xgNAXTaMkRQMDubr-133" target="RISkshFeyZUZgNBDWYs6-5" edge="1">
          <mxGeometry relative="1" as="geometry" />
        </mxCell>
        <mxCell id="Ty70xgNAXTaMkRQMDubr-133" value="&lt;div&gt;add_sub_inst4&lt;/div&gt;" style="whiteSpace=wrap;html=1;verticalAlign=bottom;fontStyle=1;fontSize=16;" parent="Ty70xgNAXTaMkRQMDubr-9" vertex="1">
          <mxGeometry x="650.84" y="380.9100000000001" width="128.79" height="58.91" as="geometry" />
        </mxCell>
        <mxCell id="Ty70xgNAXTaMkRQMDubr-134" style="edgeStyle=orthogonalEdgeStyle;rounded=0;orthogonalLoop=1;jettySize=auto;html=1;entryX=0;entryY=0.25;entryDx=0;entryDy=0;" parent="Ty70xgNAXTaMkRQMDubr-9" source="Ty70xgNAXTaMkRQMDubr-135" target="Ty70xgNAXTaMkRQMDubr-133" edge="1">
          <mxGeometry relative="1" as="geometry" />
        </mxCell>
        <mxCell id="Ty70xgNAXTaMkRQMDubr-135" value="1" style="text;html=1;align=center;verticalAlign=middle;whiteSpace=wrap;rounded=0;fontStyle=1" parent="Ty70xgNAXTaMkRQMDubr-9" vertex="1">
          <mxGeometry x="530" y="384.77" width="15" height="20" as="geometry" />
        </mxCell>
        <mxCell id="Ty70xgNAXTaMkRQMDubr-137" style="edgeStyle=orthogonalEdgeStyle;rounded=0;orthogonalLoop=1;jettySize=auto;html=1;entryX=0.086;entryY=0.835;entryDx=0;entryDy=0;entryPerimeter=0;exitX=0.986;exitY=0.32;exitDx=0;exitDy=0;exitPerimeter=0;" parent="Ty70xgNAXTaMkRQMDubr-9" source="Ty70xgNAXTaMkRQMDubr-43" target="Ty70xgNAXTaMkRQMDubr-132" edge="1">
          <mxGeometry relative="1" as="geometry" />
        </mxCell>
        <mxCell id="Ty70xgNAXTaMkRQMDubr-138" value="&lt;span style=&quot;color: rgb(0, 0, 0); font-family: Helvetica; font-size: 12px; font-style: normal; font-variant-ligatures: normal; font-variant-caps: normal; font-weight: 400; letter-spacing: normal; orphans: 2; text-align: center; text-indent: 0px; text-transform: none; widows: 2; word-spacing: 0px; -webkit-text-stroke-width: 0px; white-space: nowrap; background-color: rgb(251, 251, 251); text-decoration-thickness: initial; text-decoration-style: initial; text-decoration-color: initial; display: inline !important; float: none;&quot;&gt;$$1+\frac{x}{1+x}$$&lt;/span&gt;" style="text;whiteSpace=wrap;html=1;verticalAlign=middle;" parent="Ty70xgNAXTaMkRQMDubr-9" vertex="1">
          <mxGeometry x="680.29" y="380.90999999999997" width="46.97" height="40" as="geometry" />
        </mxCell>
        <mxCell id="Ty70xgNAXTaMkRQMDubr-140" value="x_div_one_minus_x_reg" style="text;whiteSpace=wrap;" parent="Ty70xgNAXTaMkRQMDubr-9" vertex="1">
          <mxGeometry x="510.84000000000003" y="216.95" width="110" height="30" as="geometry" />
        </mxCell>
        <mxCell id="Ty70xgNAXTaMkRQMDubr-141" value="x_div_one_plus_x_reg" style="text;whiteSpace=wrap;" parent="Ty70xgNAXTaMkRQMDubr-9" vertex="1">
          <mxGeometry x="510.84" y="420" width="129.16" height="30.91" as="geometry" />
        </mxCell>
        <mxCell id="Ty70xgNAXTaMkRQMDubr-142" value="div_inst2_in_valid" style="text;whiteSpace=wrap;" parent="Ty70xgNAXTaMkRQMDubr-9" vertex="1">
          <mxGeometry x="240" y="441" width="96.83" height="19" as="geometry" />
        </mxCell>
        <mxCell id="Ty70xgNAXTaMkRQMDubr-143" style="edgeStyle=orthogonalEdgeStyle;rounded=0;orthogonalLoop=1;jettySize=auto;html=1;entryX=0.006;entryY=0.701;entryDx=0;entryDy=0;entryPerimeter=0;" parent="Ty70xgNAXTaMkRQMDubr-9" source="Ty70xgNAXTaMkRQMDubr-142" target="Ty70xgNAXTaMkRQMDubr-91" edge="1">
          <mxGeometry relative="1" as="geometry" />
        </mxCell>
        <mxCell id="RISkshFeyZUZgNBDWYs6-12" style="edgeStyle=orthogonalEdgeStyle;rounded=0;orthogonalLoop=1;jettySize=auto;html=1;" parent="Ty70xgNAXTaMkRQMDubr-9" source="RISkshFeyZUZgNBDWYs6-1" target="RISkshFeyZUZgNBDWYs6-9" edge="1">
          <mxGeometry relative="1" as="geometry" />
        </mxCell>
        <mxCell id="RISkshFeyZUZgNBDWYs6-1" value="&lt;div&gt;mul_inst1&lt;/div&gt;" style="whiteSpace=wrap;html=1;verticalAlign=bottom;fontStyle=1;fontSize=16;" parent="Ty70xgNAXTaMkRQMDubr-9" vertex="1">
          <mxGeometry x="910.61" y="180.00000000000003" width="128.79" height="58.91" as="geometry" />
        </mxCell>
        <mxCell id="RISkshFeyZUZgNBDWYs6-4" value="term1" style="text;whiteSpace=wrap;" parent="Ty70xgNAXTaMkRQMDubr-9" vertex="1">
          <mxGeometry x="790" y="220.5" width="40" height="29.5" as="geometry" />
        </mxCell>
        <mxCell id="RISkshFeyZUZgNBDWYs6-5" value="&lt;div&gt;mul_inst2&lt;/div&gt;" style="whiteSpace=wrap;html=1;verticalAlign=bottom;fontStyle=1;fontSize=16;" parent="Ty70xgNAXTaMkRQMDubr-9" vertex="1">
          <mxGeometry x="910.6100000000001" y="374.72999999999996" width="128.79" height="58.91" as="geometry" />
        </mxCell>
        <mxCell id="RISkshFeyZUZgNBDWYs6-7" value="term2" style="text;whiteSpace=wrap;" parent="Ty70xgNAXTaMkRQMDubr-9" vertex="1">
          <mxGeometry x="798" y="420.10999999999996" width="40" height="29.5" as="geometry" />
        </mxCell>
        <mxCell id="RISkshFeyZUZgNBDWYs6-9" value="&lt;div&gt;add_sub_inst5&lt;/div&gt;" style="whiteSpace=wrap;html=1;verticalAlign=bottom;fontStyle=1;fontSize=16;" parent="Ty70xgNAXTaMkRQMDubr-9" vertex="1">
          <mxGeometry x="1150" y="180.59000000000003" width="128.79" height="58.91" as="geometry" />
        </mxCell>
        <mxCell id="RISkshFeyZUZgNBDWYs6-11" value="$$\frac{1}{2}(1+\frac{-x}{1-x})$$" style="text;whiteSpace=wrap;" parent="Ty70xgNAXTaMkRQMDubr-9" vertex="1">
          <mxGeometry x="930.01" y="167.55" width="90" height="40" as="geometry" />
        </mxCell>
        <mxCell id="RISkshFeyZUZgNBDWYs6-13" value="term1_pre" style="text;whiteSpace=wrap;" parent="Ty70xgNAXTaMkRQMDubr-9" vertex="1">
          <mxGeometry x="1050" y="205.95" width="70" height="24.05" as="geometry" />
        </mxCell>
        <mxCell id="RISkshFeyZUZgNBDWYs6-14" value="$$1- \frac{1}{2}(1+\frac{-x}{1-x})$$" style="text;whiteSpace=wrap;" parent="Ty70xgNAXTaMkRQMDubr-9" vertex="1">
          <mxGeometry x="1159.3899999999999" y="168.95" width="90" height="40" as="geometry" />
        </mxCell>
        <mxCell id="RISkshFeyZUZgNBDWYs6-18" value="$$\frac{1}{2}(1+\frac{-x}{1-x})$$" style="text;whiteSpace=wrap;" parent="Ty70xgNAXTaMkRQMDubr-9" vertex="1">
          <mxGeometry x="931" y="362" width="90" height="40" as="geometry" />
        </mxCell>
        <mxCell id="RISkshFeyZUZgNBDWYs6-20" value="term1_final" style="text;whiteSpace=wrap;" parent="Ty70xgNAXTaMkRQMDubr-9" vertex="1">
          <mxGeometry x="1300" y="175.95000000000005" width="70" height="30" as="geometry" />
        </mxCell>
        <mxCell id="RISkshFeyZUZgNBDWYs6-22" value="term2_final" style="text;whiteSpace=wrap;" parent="Ty70xgNAXTaMkRQMDubr-9" vertex="1">
          <mxGeometry x="1070" y="404.77" width="70" height="30" as="geometry" />
        </mxCell>
        <mxCell id="RISkshFeyZUZgNBDWYs6-23" value="&lt;span style=&quot;color: rgb(0, 0, 0); font-family: Helvetica; font-size: 12px; font-style: normal; font-variant-ligatures: normal; font-variant-caps: normal; font-weight: 400; letter-spacing: normal; orphans: 2; text-indent: 0px; text-transform: none; widows: 2; word-spacing: 0px; -webkit-text-stroke-width: 0px; white-space: normal; background-color: rgb(251, 251, 251); text-decoration-thickness: initial; text-decoration-style: initial; text-decoration-color: initial; float: none; display: inline !important;&quot;&gt;Condition:&lt;br&gt;x_is_negative?&lt;/span&gt;" style="text;whiteSpace=wrap;html=1;align=right;" parent="Ty70xgNAXTaMkRQMDubr-9" vertex="1">
          <mxGeometry x="1350" y="280" width="47.71" height="34.36" as="geometry" />
        </mxCell>
        <mxCell id="sse-SM5A_4NOoFkXuJ_0-2" value="div_inst1_out_valid" style="text;whiteSpace=wrap;" parent="Ty70xgNAXTaMkRQMDubr-9" vertex="1">
          <mxGeometry x="510.84" y="260" width="110" height="20" as="geometry" />
        </mxCell>
        <mxCell id="sse-SM5A_4NOoFkXuJ_0-3" value="div_inst1_out_valid" style="text;whiteSpace=wrap;" parent="Ty70xgNAXTaMkRQMDubr-9" vertex="1">
          <mxGeometry x="1120" y="260" width="110" height="20" as="geometry" />
        </mxCell>
        <mxCell id="sse-SM5A_4NOoFkXuJ_0-4" value="div_inst2_out_valid" style="text;whiteSpace=wrap;" parent="Ty70xgNAXTaMkRQMDubr-9" vertex="1">
          <mxGeometry x="510.84000000000003" y="460.90999999999985" width="110" height="20" as="geometry" />
        </mxCell>
        <mxCell id="sse-SM5A_4NOoFkXuJ_0-5" value="div_inst2_out_valid" style="text;whiteSpace=wrap;" parent="Ty70xgNAXTaMkRQMDubr-9" vertex="1">
          <mxGeometry x="1090" y="460.90999999999985" width="110" height="20" as="geometry" />
        </mxCell>
        <mxCell id="sse-SM5A_4NOoFkXuJ_0-8" value="Condition:&#xa;x_is_negative?" style="text;whiteSpace=wrap;" parent="Ty70xgNAXTaMkRQMDubr-9" vertex="1">
          <mxGeometry x="1430" y="216.95" width="110" height="50" as="geometry" />
        </mxCell>
        <mxCell id="Ty70xgNAXTaMkRQMDubr-5" value="32" style="text;html=1;align=center;verticalAlign=middle;whiteSpace=wrap;rounded=0;" parent="1" vertex="1">
          <mxGeometry x="274" y="324" width="25" height="10" as="geometry" />
        </mxCell>
        <mxCell id="Ty70xgNAXTaMkRQMDubr-58" style="edgeStyle=orthogonalEdgeStyle;rounded=0;orthogonalLoop=1;jettySize=auto;html=1;entryX=0;entryY=0.5;entryDx=0;entryDy=0;" parent="1" source="Ty70xgNAXTaMkRQMDubr-6" target="Ty70xgNAXTaMkRQMDubr-11" edge="1">
          <mxGeometry relative="1" as="geometry" />
        </mxCell>
        <mxCell id="Ty70xgNAXTaMkRQMDubr-59" style="edgeStyle=orthogonalEdgeStyle;rounded=0;orthogonalLoop=1;jettySize=auto;html=1;entryX=0;entryY=0.5;entryDx=0;entryDy=0;" parent="1" source="Ty70xgNAXTaMkRQMDubr-6" target="Ty70xgNAXTaMkRQMDubr-55" edge="1">
          <mxGeometry relative="1" as="geometry">
            <Array as="points">
              <mxPoint x="340" y="338" />
              <mxPoint x="340" y="550" />
              <mxPoint x="504" y="550" />
            </Array>
          </mxGeometry>
        </mxCell>
        <mxCell id="Ty70xgNAXTaMkRQMDubr-6" value="in_x" style="text;whiteSpace=wrap;html=1;" parent="1" vertex="1">
          <mxGeometry x="220" y="320.97" width="34.70666666666666" height="34.36" as="geometry" />
        </mxCell>
        <mxCell id="Ty70xgNAXTaMkRQMDubr-94" style="edgeStyle=orthogonalEdgeStyle;rounded=0;orthogonalLoop=1;jettySize=auto;html=1;entryX=0;entryY=0.5;entryDx=0;entryDy=0;" parent="1" source="Ty70xgNAXTaMkRQMDubr-6" target="Ty70xgNAXTaMkRQMDubr-91" edge="1">
          <mxGeometry relative="1" as="geometry">
            <Array as="points">
              <mxPoint x="340" y="338" />
              <mxPoint x="340" y="630" />
            </Array>
          </mxGeometry>
        </mxCell>
        <mxCell id="Ty70xgNAXTaMkRQMDubr-96" value="&lt;span style=&quot;color: rgb(0, 0, 0); font-family: Helvetica; font-size: 12px; font-style: normal; font-variant-ligatures: normal; font-variant-caps: normal; font-weight: 400; letter-spacing: normal; orphans: 2; text-indent: 0px; text-transform: none; widows: 2; word-spacing: 0px; -webkit-text-stroke-width: 0px; white-space: normal; background-color: rgb(251, 251, 251); text-decoration-thickness: initial; text-decoration-style: initial; text-decoration-color: initial; float: none; display: inline !important;&quot;&gt;&amp;nbsp;out_valid&lt;/span&gt;" style="text;whiteSpace=wrap;html=1;align=right;" parent="1" vertex="1">
          <mxGeometry x="1961.6100000000001" y="444" width="58.03" height="34.36" as="geometry" />
        </mxCell>
        <mxCell id="Ty70xgNAXTaMkRQMDubr-127" value="&lt;span style=&quot;color: rgb(0, 0, 0); font-family: Helvetica; font-size: 12px; font-style: normal; font-variant-ligatures: normal; font-variant-caps: normal; font-weight: 400; letter-spacing: normal; orphans: 2; text-indent: 0px; text-transform: none; widows: 2; word-spacing: 0px; -webkit-text-stroke-width: 0px; white-space: normal; background-color: rgb(251, 251, 251); text-decoration-thickness: initial; text-decoration-style: initial; text-decoration-color: initial; float: none; display: inline !important;&quot;&gt;out_sigmoid&lt;/span&gt;" style="text;whiteSpace=wrap;html=1;align=right;" parent="1" vertex="1">
          <mxGeometry x="1940" y="480" width="79.64" height="34.36" as="geometry" />
        </mxCell>
        <mxCell id="Ty70xgNAXTaMkRQMDubr-149" value="div_inst1_out_valid  -  div_inst1_in_valid = 260ns&#xa;div_inst1_out_valid : holds for 1 cycle&#xa;div_inst1_in_valid: holds for 2 cycles&#xa;x_div_one_minus_x_reg updates at div_inst1_out_valid negative edge&#xa;" style="text;whiteSpace=wrap;fontSize=17;" parent="1" vertex="1">
          <mxGeometry x="320" y="900" width="540" height="110" as="geometry" />
        </mxCell>
        <mxCell id="RISkshFeyZUZgNBDWYs6-15" style="edgeStyle=orthogonalEdgeStyle;rounded=0;orthogonalLoop=1;jettySize=auto;html=1;entryX=0;entryY=0.5;entryDx=0;entryDy=0;" parent="1" source="RISkshFeyZUZgNBDWYs6-9" target="Ty70xgNAXTaMkRQMDubr-127" edge="1">
          <mxGeometry relative="1" as="geometry">
            <Array as="points">
              <mxPoint x="1730" y="409" />
              <mxPoint x="1730" y="497" />
            </Array>
          </mxGeometry>
        </mxCell>
        <mxCell id="RISkshFeyZUZgNBDWYs6-19" style="edgeStyle=orthogonalEdgeStyle;rounded=0;orthogonalLoop=1;jettySize=auto;html=1;entryX=0;entryY=0.5;entryDx=0;entryDy=0;" parent="1" source="RISkshFeyZUZgNBDWYs6-5" target="Ty70xgNAXTaMkRQMDubr-127" edge="1">
          <mxGeometry relative="1" as="geometry">
            <Array as="points">
              <mxPoint x="1730" y="603" />
              <mxPoint x="1730" y="497" />
            </Array>
          </mxGeometry>
        </mxCell>
        <mxCell id="sse-SM5A_4NOoFkXuJ_0-1" value="" style="shape=mxgraph.sysml.x;" parent="1" vertex="1">
          <mxGeometry x="1725" y="493" width="10" height="10" as="geometry" />
        </mxCell>
        <mxCell id="Ty70xgNAXTaMkRQMDubr-148" style="edgeStyle=orthogonalEdgeStyle;rounded=0;orthogonalLoop=1;jettySize=auto;html=1;entryX=0;entryY=0.5;entryDx=0;entryDy=0;exitX=0.997;exitY=0.814;exitDx=0;exitDy=0;exitPerimeter=0;" parent="1" source="Ty70xgNAXTaMkRQMDubr-43" target="Ty70xgNAXTaMkRQMDubr-96" edge="1">
          <mxGeometry relative="1" as="geometry">
            <mxPoint x="1762" y="460" as="targetPoint" />
          </mxGeometry>
        </mxCell>
        <mxCell id="sse-SM5A_4NOoFkXuJ_0-7" value="" style="shape=mxgraph.sysml.x;" parent="1" vertex="1">
          <mxGeometry x="1765" y="458" width="10" height="10" as="geometry" />
        </mxCell>
        <mxCell id="Al5RjWG4StTg0TqS3_SQ-2" value="&lt;div style=&quot;color: #cccccc;background-color: #1f1f1f;font-family: &#39;Droid Sans Mono&#39;, &#39;monospace&#39;, monospace;font-weight: normal;font-size: 14px;line-height: 19px;white-space: pre;&quot;&gt;&lt;div&gt;&lt;span style=&quot;color: #c586c0;&quot;&gt;module&lt;/span&gt;&lt;span style=&quot;color: #cccccc;&quot;&gt; &lt;/span&gt;&lt;span style=&quot;color: #4ec9b0;&quot;&gt;sigmoid_approx&lt;/span&gt;&lt;span style=&quot;color: #cccccc;&quot;&gt; &lt;/span&gt;&lt;span style=&quot;color: #d4d4d4;&quot;&gt;#&lt;/span&gt;&lt;span style=&quot;color: #cccccc;&quot;&gt;(&lt;/span&gt;&lt;span style=&quot;color: #569cd6;&quot;&gt;parameter&lt;/span&gt;&lt;span style=&quot;color: #cccccc;&quot;&gt; &lt;/span&gt;&lt;span style=&quot;color: #9cdcfe;&quot;&gt;exp_width&lt;/span&gt;&lt;span style=&quot;color: #cccccc;&quot;&gt; &lt;/span&gt;&lt;span style=&quot;color: #d4d4d4;&quot;&gt;=&lt;/span&gt;&lt;span style=&quot;color: #cccccc;&quot;&gt; &lt;/span&gt;&lt;span style=&quot;color: #b5cea8;&quot;&gt;8&lt;/span&gt;&lt;span style=&quot;color: #cccccc;&quot;&gt;, &lt;/span&gt;&lt;span style=&quot;color: #569cd6;&quot;&gt;parameter&lt;/span&gt;&lt;span style=&quot;color: #cccccc;&quot;&gt; &lt;/span&gt;&lt;span style=&quot;color: #9cdcfe;&quot;&gt;mant_width&lt;/span&gt;&lt;span style=&quot;color: #cccccc;&quot;&gt; &lt;/span&gt;&lt;span style=&quot;color: #d4d4d4;&quot;&gt;=&lt;/span&gt;&lt;span style=&quot;color: #cccccc;&quot;&gt; &lt;/span&gt;&lt;span style=&quot;color: #b5cea8;&quot;&gt;24&lt;/span&gt;&lt;span style=&quot;color: #cccccc;&quot;&gt;)&lt;/span&gt;&lt;/div&gt;&lt;div&gt;&lt;span style=&quot;color: #cccccc;&quot;&gt;(&lt;/span&gt;&lt;/div&gt;&lt;div&gt;&lt;span style=&quot;color: #cccccc;&quot;&gt;    &lt;/span&gt;&lt;span style=&quot;color: #4ec9b0;&quot;&gt;input&lt;/span&gt;&lt;span style=&quot;color: #cccccc;&quot;&gt;  &lt;/span&gt;&lt;span style=&quot;color: #569cd6;&quot;&gt;wire&lt;/span&gt;&lt;span style=&quot;color: #cccccc;&quot;&gt; [(&lt;/span&gt;&lt;span style=&quot;color: #9cdcfe;&quot;&gt;exp_width&lt;/span&gt;&lt;span style=&quot;color: #cccccc;&quot;&gt; &lt;/span&gt;&lt;span style=&quot;color: #d4d4d4;&quot;&gt;+&lt;/span&gt;&lt;span style=&quot;color: #cccccc;&quot;&gt; &lt;/span&gt;&lt;span style=&quot;color: #9cdcfe;&quot;&gt;mant_width&lt;/span&gt;&lt;span style=&quot;color: #cccccc;&quot;&gt; &lt;/span&gt;&lt;span style=&quot;color: #d4d4d4;&quot;&gt;-&lt;/span&gt;&lt;span style=&quot;color: #cccccc;&quot;&gt; &lt;/span&gt;&lt;span style=&quot;color: #b5cea8;&quot;&gt;1&lt;/span&gt;&lt;span style=&quot;color: #cccccc;&quot;&gt;)&lt;/span&gt;&lt;span style=&quot;color: #d4d4d4;&quot;&gt;:&lt;/span&gt;&lt;span style=&quot;color: #b5cea8;&quot;&gt;0&lt;/span&gt;&lt;span style=&quot;color: #cccccc;&quot;&gt;] &lt;/span&gt;&lt;span style=&quot;color: #9cdcfe;&quot;&gt;in_x&lt;/span&gt;&lt;span style=&quot;color: #cccccc;&quot;&gt;,&lt;/span&gt;&lt;/div&gt;&lt;div&gt;&lt;span style=&quot;color: #cccccc;&quot;&gt;    &lt;/span&gt;&lt;span style=&quot;color: #4ec9b0;&quot;&gt;input&lt;/span&gt;&lt;span style=&quot;color: #cccccc;&quot;&gt;  &lt;/span&gt;&lt;span style=&quot;color: #569cd6;&quot;&gt;wire&lt;/span&gt;&lt;span style=&quot;color: #cccccc;&quot;&gt;                                   &lt;/span&gt;&lt;span style=&quot;color: #9cdcfe;&quot;&gt;clk&lt;/span&gt;&lt;span style=&quot;color: #cccccc;&quot;&gt;,&lt;/span&gt;&lt;/div&gt;&lt;div&gt;&lt;span style=&quot;color: #cccccc;&quot;&gt;    &lt;/span&gt;&lt;span style=&quot;color: #4ec9b0;&quot;&gt;input&lt;/span&gt;&lt;span style=&quot;color: #cccccc;&quot;&gt;  &lt;/span&gt;&lt;span style=&quot;color: #569cd6;&quot;&gt;wire&lt;/span&gt;&lt;span style=&quot;color: #cccccc;&quot;&gt;                                   &lt;/span&gt;&lt;span style=&quot;color: #9cdcfe;&quot;&gt;rst_l&lt;/span&gt;&lt;span style=&quot;color: #cccccc;&quot;&gt;,&lt;/span&gt;&lt;/div&gt;&lt;div&gt;&lt;span style=&quot;color: #cccccc;&quot;&gt;    &lt;/span&gt;&lt;span style=&quot;color: #4ec9b0;&quot;&gt;input&lt;/span&gt;&lt;span style=&quot;color: #cccccc;&quot;&gt; &lt;/span&gt;&lt;span style=&quot;color: #569cd6;&quot;&gt;wire&lt;/span&gt;&lt;span style=&quot;color: #cccccc;&quot;&gt; [&lt;/span&gt;&lt;span style=&quot;color: #b5cea8;&quot;&gt;2&lt;/span&gt;&lt;span style=&quot;color: #d4d4d4;&quot;&gt;:&lt;/span&gt;&lt;span style=&quot;color: #b5cea8;&quot;&gt;0&lt;/span&gt;&lt;span style=&quot;color: #cccccc;&quot;&gt;] &lt;/span&gt;&lt;span style=&quot;color: #9cdcfe;&quot;&gt;round_mode&lt;/span&gt;&lt;span style=&quot;color: #cccccc;&quot;&gt;,&lt;/span&gt;&lt;/div&gt;&lt;div&gt;&lt;span style=&quot;color: #cccccc;&quot;&gt;    &lt;/span&gt;&lt;span style=&quot;color: #4ec9b0;&quot;&gt;input&lt;/span&gt;&lt;span style=&quot;color: #cccccc;&quot;&gt; &lt;/span&gt;&lt;span style=&quot;color: #569cd6;&quot;&gt;wire&lt;/span&gt;&lt;span style=&quot;color: #cccccc;&quot;&gt; &lt;/span&gt;&lt;span style=&quot;color: #9cdcfe;&quot;&gt;in_valid&lt;/span&gt;&lt;span style=&quot;color: #cccccc;&quot;&gt;, &lt;/span&gt;&lt;span style=&quot;color: #6a9955;&quot;&gt;//&lt;/span&gt;&lt;span style=&quot;color: #f44747;&quot;&gt;TODO&lt;/span&gt;&lt;span style=&quot;color: #6a9955;&quot;&gt; update tb&lt;/span&gt;&lt;/div&gt;&lt;div&gt;&lt;span style=&quot;color: #cccccc;&quot;&gt;    &lt;/span&gt;&lt;span style=&quot;color: #4ec9b0;&quot;&gt;output&lt;/span&gt;&lt;span style=&quot;color: #cccccc;&quot;&gt; &lt;/span&gt;&lt;span style=&quot;color: #569cd6;&quot;&gt;reg&lt;/span&gt;&lt;span style=&quot;color: #cccccc;&quot;&gt; [(&lt;/span&gt;&lt;span style=&quot;color: #9cdcfe;&quot;&gt;exp_width&lt;/span&gt;&lt;span style=&quot;color: #cccccc;&quot;&gt; &lt;/span&gt;&lt;span style=&quot;color: #d4d4d4;&quot;&gt;+&lt;/span&gt;&lt;span style=&quot;color: #cccccc;&quot;&gt; &lt;/span&gt;&lt;span style=&quot;color: #9cdcfe;&quot;&gt;mant_width&lt;/span&gt;&lt;span style=&quot;color: #cccccc;&quot;&gt; &lt;/span&gt;&lt;span style=&quot;color: #d4d4d4;&quot;&gt;-&lt;/span&gt;&lt;span style=&quot;color: #cccccc;&quot;&gt; &lt;/span&gt;&lt;span style=&quot;color: #b5cea8;&quot;&gt;1&lt;/span&gt;&lt;span style=&quot;color: #cccccc;&quot;&gt;)&lt;/span&gt;&lt;span style=&quot;color: #d4d4d4;&quot;&gt;:&lt;/span&gt;&lt;span style=&quot;color: #b5cea8;&quot;&gt;0&lt;/span&gt;&lt;span style=&quot;color: #cccccc;&quot;&gt;] &lt;/span&gt;&lt;span style=&quot;color: #9cdcfe;&quot;&gt;out_sigmoid&lt;/span&gt;&lt;span style=&quot;color: #cccccc;&quot;&gt;,&lt;/span&gt;&lt;/div&gt;&lt;div&gt;&lt;span style=&quot;color: #cccccc;&quot;&gt;   &lt;/span&gt;&lt;span style=&quot;color: #6a9955;&quot;&gt;// output wire [4:0] exceptions,&lt;/span&gt;&lt;/div&gt;&lt;div&gt;&lt;span style=&quot;color: #cccccc;&quot;&gt;    &lt;/span&gt;&lt;span style=&quot;color: #4ec9b0;&quot;&gt;output&lt;/span&gt;&lt;span style=&quot;color: #cccccc;&quot;&gt; &lt;/span&gt;&lt;span style=&quot;color: #569cd6;&quot;&gt;wire&lt;/span&gt;&lt;span style=&quot;color: #cccccc;&quot;&gt; &lt;/span&gt;&lt;span style=&quot;color: #9cdcfe;&quot;&gt;out_valid&lt;/span&gt;&lt;span style=&quot;color: #cccccc;&quot;&gt; &lt;/span&gt;&lt;span style=&quot;color: #6a9955;&quot;&gt;//indicates when output is ready because calculations take multiple cycles&lt;/span&gt;&lt;/div&gt;&lt;div&gt;&lt;span style=&quot;color: #cccccc;&quot;&gt;);&lt;/span&gt;&lt;/div&gt;&lt;/div&gt;" style="text;whiteSpace=wrap;html=1;" vertex="1" parent="1">
          <mxGeometry x="-940" y="214" width="560" height="230" as="geometry" />
        </mxCell>
        <mxCell id="Al5RjWG4StTg0TqS3_SQ-6" value="clk" style="text;align=left;verticalAlign=middle;rounded=0;overflow=width;noLabel=0;expand=1;autosize=1;resizeWidth=1;whiteSpace=wrap;resizable=0;resizeHeight=0;autosizeGrid=1;html=1;" vertex="1" parent="1">
          <mxGeometry x="-930" y="530" width="40" height="30" as="geometry" />
        </mxCell>
        <mxCell id="Al5RjWG4StTg0TqS3_SQ-7" value="rst_l" style="text;html=1;align=left;verticalAlign=middle;rounded=0;overflow=width;noLabel=0;expand=1;autosize=1;resizeWidth=1;whiteSpace=wrap;resizable=0;resizeHeight=0;autosizeGrid=1;" vertex="1" parent="1">
          <mxGeometry x="-930" y="560" width="50" height="30" as="geometry" />
        </mxCell>
        <mxCell id="Al5RjWG4StTg0TqS3_SQ-8" value="in_x" style="text;html=1;align=left;verticalAlign=middle;rounded=0;overflow=width;noLabel=0;expand=1;autosize=1;resizeWidth=1;whiteSpace=wrap;resizable=0;resizeHeight=0;autosizeGrid=1;" vertex="1" parent="1">
          <mxGeometry x="-930" y="590" width="50" height="30" as="geometry" />
        </mxCell>
        <mxCell id="Al5RjWG4StTg0TqS3_SQ-15" value="round_mode" style="text;html=1;align=left;verticalAlign=middle;rounded=0;overflow=width;noLabel=0;expand=1;autosize=1;resizeWidth=1;whiteSpace=wrap;resizable=0;resizeHeight=0;autosizeGrid=1;" vertex="1" parent="1">
          <mxGeometry x="-930" y="620" width="90" height="30" as="geometry" />
        </mxCell>
        <mxCell id="Al5RjWG4StTg0TqS3_SQ-16" value="in_valid" style="text;html=1;align=left;verticalAlign=middle;rounded=0;overflow=width;noLabel=0;expand=1;autosize=1;resizeWidth=1;whiteSpace=wrap;resizable=0;resizeHeight=0;autosizeGrid=1;" vertex="1" parent="1">
          <mxGeometry x="-930" y="650" width="60" height="30" as="geometry" />
        </mxCell>
        <mxCell id="Al5RjWG4StTg0TqS3_SQ-17" value="out_sigmoid" style="text;align=right;verticalAlign=middle;rounded=0;overflow=width;noLabel=0;expand=1;autosize=1;resizeWidth=1;whiteSpace=wrap;resizable=0;resizeHeight=0;autosizeGrid=1;html=1;" vertex="1" parent="1">
          <mxGeometry x="-800" y="530" width="90" height="30" as="geometry" />
        </mxCell>
        <mxCell id="Al5RjWG4StTg0TqS3_SQ-18" value="out_valid" style="text;html=1;align=right;verticalAlign=middle;rounded=0;overflow=width;noLabel=0;expand=1;autosize=1;resizeWidth=1;whiteSpace=wrap;resizable=0;resizeHeight=0;autosizeGrid=1;" vertex="1" parent="1">
          <mxGeometry x="-780" y="560" width="70" height="30" as="geometry" />
        </mxCell>
      </root>
    </mxGraphModel>
  </diagram>
</mxfile>
